<svg width="12" height="12" viewBox="0 0 12 12" fill="none" xmlns="http://www.w3.org/2000/svg">
<path d="M0 0H8C10.2091 0 12 1.79086 12 4V12H4C1.79086 12 0 10.2091 0 8V0Z" fill="#7CB0B7"/>
<path d="M4.15234 4.02344V3.34766H7.85938V3.89453C7.49479 4.28255 7.13281 4.79818 6.77344 5.44141C6.41667 6.08464 6.14062 6.74609 5.94531 7.42578C5.80469 7.90495 5.71484 8.42969 5.67578 9H4.95312C4.96094 8.54948 5.04948 8.00521 5.21875 7.36719C5.38802 6.72917 5.63021 6.11458 5.94531 5.52344C6.26302 4.92969 6.60026 4.42969 6.95703 4.02344H4.15234Z" fill="black"/>
</svg>
