<svg width="500" height="350" viewBox="0 0 500 350" fill="none" xmlns="http://www.w3.org/2000/svg">
<rect width="500" height="350" fill="#B8859E"/>
<path d="M73.39 130.46C73.39 135.96 69.76 138.82 63.49 138.82H49.63V121.77H63.27C69.54 121.77 73.39 124.96 73.39 130.46ZM71.52 99.99C71.52 105.27 68.11 108.02 61.95 108.02H49.63V91.85H61.95C68.11 91.85 71.52 94.71 71.52 99.99ZM92.42 132.99C92.42 124.19 86.59 116.27 77.57 114.4C85.05 112.2 90.66 106.15 90.66 96.8C90.66 84.59 81.31 76.78 65.58 76.78H30.82V154H66.79C83.07 154 92.42 145.75 92.42 132.99ZM122.14 125.51C122.14 114.95 127.31 111.87 136.22 111.87H141.39V91.96C133.14 91.96 126.43 96.36 122.14 102.85V92.62H103.33V154H122.14V125.51ZM146.641 123.2C146.641 142.56 158.631 154.88 173.591 154.88C182.721 154.88 189.211 150.7 192.621 145.31V154H211.431V92.62H192.621V101.31C189.321 95.92 182.831 91.74 173.701 91.74C158.631 91.74 146.641 103.84 146.641 123.2ZM192.621 123.31C192.621 133.1 186.351 138.49 179.201 138.49C172.161 138.49 165.781 132.99 165.781 123.2C165.781 113.41 172.161 108.13 179.201 108.13C186.351 108.13 192.621 113.52 192.621 123.31ZM267.389 154H286.089V118.14C286.089 101.64 276.629 91.96 262.439 91.96C254.189 91.96 247.589 95.59 243.849 100.76V92.62H225.039V154H243.849V120.67C243.849 112.31 248.469 107.69 255.619 107.69C262.769 107.69 267.389 112.31 267.389 120.67V154ZM295.42 123.2C295.42 142.56 307.41 154.88 322.48 154.88C331.5 154.88 337.99 150.81 341.4 145.2V154H360.21V72.6H341.4V101.09C337.66 95.48 330.62 91.74 322.48 91.74C307.41 91.74 295.42 103.84 295.42 123.2ZM341.4 123.31C341.4 133.1 335.13 138.49 327.98 138.49C320.94 138.49 314.56 132.99 314.56 123.2C314.56 113.41 320.94 108.13 327.98 108.13C335.13 108.13 341.4 113.52 341.4 123.31ZM30.82 274H49.63V212.62H30.82V274ZM40.28 206.24C46.88 206.24 51.39 201.73 51.39 196.12C51.39 190.4 46.88 185.89 40.28 185.89C33.57 185.89 29.06 190.4 29.06 196.12C29.06 201.73 33.57 206.24 40.28 206.24ZM59.5214 243.2C59.5214 262.56 71.5114 274.88 86.5814 274.88C95.6014 274.88 102.091 270.81 105.501 265.2V274H124.311V192.6H105.501V221.09C101.761 215.48 94.7214 211.74 86.5814 211.74C71.5114 211.74 59.5214 223.84 59.5214 243.2ZM105.501 243.31C105.501 253.1 99.2314 258.49 92.0814 258.49C85.0414 258.49 78.6614 252.99 78.6614 243.2C78.6614 233.41 85.0414 228.13 92.0814 228.13C99.2314 228.13 105.501 233.52 105.501 243.31ZM164.98 226.81C171.25 226.81 176.53 230.66 176.53 237.37H152.99C154.09 230.55 158.82 226.81 164.98 226.81ZM194.35 253.65H174.33C172.79 256.95 169.82 259.59 164.54 259.59C158.49 259.59 153.54 255.85 152.88 247.82H195.45C195.67 245.95 195.78 244.08 195.78 242.32C195.78 223.62 183.13 211.74 165.2 211.74C146.94 211.74 134.18 223.84 134.18 243.31C134.18 262.78 147.16 274.88 165.2 274.88C180.49 274.88 191.38 265.64 194.35 253.65ZM248.053 274H266.753V238.14C266.753 221.64 257.293 211.96 243.103 211.96C234.853 211.96 228.253 215.59 224.513 220.76V212.62H205.703V274H224.513V240.67C224.513 232.31 229.133 227.69 236.283 227.69C243.433 227.69 248.053 232.31 248.053 240.67V274ZM282.794 252.66C282.794 268.61 291.704 274 304.464 274H314.034V258.05H307.324C303.144 258.05 301.604 256.51 301.604 252.88V228.24H313.924V212.62H301.604V197.66H282.794V212.62H275.314V228.24H282.794V252.66ZM324.511 274H343.321V212.62H324.511V274ZM333.971 206.24C340.571 206.24 345.081 201.73 345.081 196.12C345.081 190.4 340.571 185.89 333.971 185.89C327.261 185.89 322.751 190.4 322.751 196.12C322.751 201.73 327.261 206.24 333.971 206.24ZM359.923 252.66C359.923 268.61 368.833 274 381.593 274H391.163V258.05H384.453C380.273 258.05 378.733 256.51 378.733 252.88V228.24H391.053V212.62H378.733V197.66H359.923V212.62H352.443V228.24H359.923V252.66ZM429.91 251.01L415.72 212.62H394.71L419.68 271.91L405.6 303.15H425.84L464.34 212.62H443.99L429.91 251.01Z" fill="#FFF5FC" fill-opacity="0.2"/>
<path d="M71.8 134.6C71.8 143 65.8 148.1 55.7 148.1H39V120.8H55.4C65.4 120.8 71.8 126.2 71.8 134.6ZM70.1 102.4C70.1 110.2 64.8 115 55.3 115H39V90H55C65.1 90 70.1 94.9 70.1 102.4ZM78.8 135.3C78.8 126.5 72.5 119.3 64.7 117.9C71.4 116 77.2 110.9 77.2 101.7C77.2 91.9 70.2 84.1 55.5 84.1H32V154H56.2C70.9 154 78.8 145.8 78.8 135.3ZM98.668 123.5C98.668 109.8 106.368 105.7 115.468 105.7H117.368V98.4C107.968 98.4 101.668 102.4 98.668 109.1V99.4H91.668V154H98.668V123.5ZM124.698 126.6C124.698 143.7 135.798 154.8 150.698 154.8C161.598 154.8 169.198 148.9 172.398 141.9V154H179.398V99.4H172.398V111.4C169.298 104.5 161.798 98.6 150.798 98.6C135.798 98.6 124.698 109.5 124.698 126.6ZM172.398 126.7C172.398 140.3 163.298 148.7 152.098 148.7C140.598 148.7 131.798 140.4 131.798 126.6C131.798 112.7 140.598 104.7 152.098 104.7C163.298 104.7 172.398 113.1 172.398 126.7ZM236.279 154H243.179V122C243.179 106 233.379 98.4 220.979 98.4C212.879 98.4 205.879 101.9 202.379 108.7V99.4H195.379V154H202.379V124.2C202.379 110.9 209.479 104.5 219.679 104.5C229.679 104.5 236.279 110.7 236.279 122.8V154ZM255.46 126.6C255.46 143.7 266.56 154.8 281.56 154.8C292.36 154.8 299.96 149 303.16 141.8V154H310.16V80H303.16V111.2C299.66 104 291.46 98.6 281.66 98.6C266.56 98.6 255.46 109.5 255.46 126.6ZM303.16 126.7C303.16 140.3 294.06 148.7 282.86 148.7C271.36 148.7 262.56 140.4 262.56 126.6C262.56 112.7 271.36 104.7 282.86 104.7C294.06 104.7 303.16 113.1 303.16 126.7ZM32 274H39V219.4H32V274ZM35.5 209.1C38.3 209.1 40.6 206.9 40.6 203.9C40.6 200.9 38.3 198.8 35.5 198.8C32.7 198.8 30.4 200.9 30.4 203.9C30.4 206.9 32.7 209.1 35.5 209.1ZM51.6516 246.6C51.6516 263.7 62.7516 274.8 77.7516 274.8C88.5516 274.8 96.1516 269 99.3516 261.8V274H106.352V200H99.3516V231.2C95.8516 224 87.6516 218.6 77.8516 218.6C62.7516 218.6 51.6516 229.5 51.6516 246.6ZM99.3516 246.7C99.3516 260.3 90.2516 268.7 79.0516 268.7C67.5516 268.7 58.7516 260.4 58.7516 246.6C58.7516 232.7 67.5516 224.7 79.0516 224.7C90.2516 224.7 99.3516 233.1 99.3516 246.7ZM145.632 224.6C155.732 224.6 164.932 231 164.632 243.7H126.232C127.032 231 135.732 224.6 145.632 224.6ZM170.932 256.7H163.532C161.532 264 155.232 268.9 145.932 268.9C135.732 268.9 126.832 262.2 126.232 249.4H171.532C171.732 247.5 171.732 246.1 171.732 243.9C171.732 230 161.932 218.6 145.932 218.6C130.232 218.6 119.132 229.3 119.132 246.7C119.132 264 130.432 274.8 145.932 274.8C159.632 274.8 168.432 267 170.932 256.7ZM225.439 274H232.339V242C232.339 226 222.539 218.4 210.139 218.4C202.039 218.4 195.039 221.9 191.539 228.7V219.4H184.539V274H191.539V244.2C191.539 230.9 198.639 224.5 208.839 224.5C218.839 224.5 225.439 230.7 225.439 242.8V274ZM249.82 259.2C249.82 270.1 254.92 274 264.42 274H271.92V268H265.52C259.22 268 256.92 265.9 256.92 259.2V225.3H271.92V219.4H256.92V205.7H249.82V219.4H242.22V225.3H249.82V259.2ZM283.465 274H290.465V219.4H283.465V274ZM286.965 209.1C289.765 209.1 292.065 206.9 292.065 203.9C292.065 200.9 289.765 198.8 286.965 198.8C284.165 198.8 281.865 200.9 281.865 203.9C281.865 206.9 284.165 209.1 286.965 209.1ZM308.316 259.2C308.316 270.1 313.416 274 322.916 274H330.416V268H324.016C317.716 268 315.416 265.9 315.416 259.2V225.3H330.416V219.4H315.416V205.7H308.316V219.4H300.716V225.3H308.316V259.2ZM361.761 266L343.161 219.4H335.461L357.861 273.7L347.261 299.7H354.561L386.961 219.4H379.761L361.761 266Z" fill="black"/>
</svg>
