<svg width="500" height="350" viewBox="0 0 500 350" fill="none" xmlns="http://www.w3.org/2000/svg">
<rect width="500" height="350" fill="#7CB0B7"/>
<path d="M27.52 115.06C27.52 138.27 42.81 154.55 66.13 154.55C85.6 154.55 99.46 143.33 103.31 125.73H80.1C77.35 131.56 72.18 134.75 65.8 134.75C55.9 134.75 49.41 127.05 49.41 115.06C49.41 103.18 55.9 95.48 65.8 95.48C72.18 95.48 77.35 98.67 80.1 104.5H103.31C99.46 86.9 85.6 75.68 66.13 75.68C42.81 75.68 27.52 91.96 27.52 115.06ZM174.679 123.09C174.679 103.51 160.709 91.52 142.339 91.52C123.969 91.52 109.999 103.51 109.999 123.09C109.999 142.78 123.859 154.77 142.229 154.77C160.599 154.77 174.679 142.78 174.679 123.09ZM131.999 123.09C131.999 114.29 136.839 110.22 142.339 110.22C147.839 110.22 152.789 114.29 152.789 123.09C152.789 132 147.729 136.07 142.229 136.07C136.619 136.07 131.999 132 131.999 123.09ZM205.011 100.87V92.29H183.451V183.48H205.011V145.42C208.311 150.81 214.361 154.77 223.051 154.77C237.791 154.77 249.341 142.78 249.341 123.09C249.341 103.4 237.791 91.52 223.051 91.52C214.471 91.52 208.201 95.37 205.011 100.87ZM227.451 123.09C227.451 131.34 222.281 135.96 216.231 135.96C210.181 135.96 205.011 131.45 205.011 123.09C205.011 114.84 210.181 110.33 216.231 110.33C222.281 110.33 227.451 114.73 227.451 123.09ZM288.467 127.27L275.487 92.29H251.507L276.807 151.36L262.067 183.37H285.497L324.657 92.29H301.007L288.467 127.27ZM339.977 154H364.067L372.977 116.6L381.557 154H405.757L421.487 92.29H401.247L394.427 133.32L384.967 92.29H361.867L352.737 133.21L345.807 92.29H324.357L339.977 154ZM449.181 127.05C449.181 117.59 454.131 114.73 463.041 114.73H469.091V91.74C460.841 91.74 453.801 96.47 449.181 103.18V92.29H427.621V154H449.181V127.05ZM30.16 274H51.72V212.29H30.16V274ZM41.05 206.57C48.64 206.57 53.59 201.73 53.59 195.57C53.59 189.3 48.64 184.35 41.05 184.35C33.35 184.35 28.4 189.3 28.4 195.57C28.4 201.73 33.35 206.57 41.05 206.57ZM67.4079 250.57C67.4079 268.28 77.4179 274 91.0579 274H100.408V255.63H94.1379C90.5079 255.63 89.0779 254.2 89.0779 250.9V230.22H100.298V212.29H89.0779V197.33H67.4079V212.29H59.8179V230.22H67.4079V250.57ZM110.297 274H131.857V212.29H110.297V274ZM121.187 206.57C128.777 206.57 133.727 201.73 133.727 195.57C133.727 189.3 128.777 184.35 121.187 184.35C113.487 184.35 108.537 189.3 108.537 195.57C108.537 201.73 113.487 206.57 121.187 206.57ZM186.155 274H207.715V238.03C207.715 221.86 198.805 211.74 184.505 211.74C175.815 211.74 169.325 215.81 165.695 221.09V212.29H144.135V274H165.695V240.89C165.695 233.74 169.655 229.56 176.035 229.56C182.195 229.56 186.155 233.74 186.155 240.89V274ZM216.025 243.09C216.025 262.78 227.685 274.77 242.315 274.77C251.005 274.77 257.275 270.92 260.465 265.42V273.34C260.465 282.91 255.515 285.66 249.465 285.66C243.965 285.66 240.225 283.35 239.345 279.39H218.115C219.655 294.68 231.535 304.36 250.785 304.36C273.005 304.36 282.025 289.84 282.025 273.34V212.29H260.465V220.87C257.275 215.37 251.005 211.52 242.315 211.52C227.685 211.52 216.025 223.4 216.025 243.09ZM260.465 243.09C260.465 251.45 255.295 255.96 249.245 255.96C243.085 255.96 238.025 251.34 238.025 243.09C238.025 234.73 243.085 230.33 249.245 230.33C255.295 230.33 260.465 234.84 260.465 243.09Z" fill="#FFF5FC" fill-opacity="0.2"/>
<path d="M28.8 119C28.8 140 43.6 154.6 63 154.6C78.6 154.6 90.2 146.8 95.2 133.6H87C83.1 142.7 74.9 148.5 63 148.5C47.7 148.5 36 137.2 36 119C36 100.7 47.7 89.4 63 89.4C74.9 89.4 83.1 95.2 87 104.5H95.2C90.2 91.1 78.6 83.3 63 83.3C43.6 83.3 28.8 98 28.8 119ZM160.548 126.7C160.548 109.3 148.648 98.6 133.248 98.6C117.948 98.6 105.948 109.3 105.948 126.7C105.948 144 117.648 154.8 133.048 154.8C148.448 154.8 160.548 144 160.548 126.7ZM113.048 126.7C113.048 111.7 122.748 104.7 133.148 104.7C143.548 104.7 153.348 111.7 153.348 126.7C153.348 141.7 143.348 148.7 133.048 148.7C122.648 148.7 113.048 141.7 113.048 126.7ZM180.209 111.4V99.4H173.309V179.8H180.209V142C183.409 148.8 191.009 154.8 201.909 154.8C216.809 154.8 227.909 143.7 227.909 126.6C227.909 109.5 216.809 98.6 201.909 98.6C191.009 98.6 183.409 104.5 180.209 111.4ZM220.809 126.6C220.809 140.4 212.009 148.7 200.509 148.7C189.409 148.7 180.209 140.3 180.209 126.7C180.209 113.1 189.409 104.7 200.509 104.7C212.009 104.7 220.809 112.7 220.809 126.6ZM260.589 146L241.989 99.4H234.289L256.689 153.7L246.089 179.7H253.389L285.789 99.4H278.589L260.589 146ZM305.881 154H312.981L328.081 108.2L343.181 154H350.181L367.281 99.4H360.381L346.881 147L331.781 99.4H324.781L309.481 146.9L295.881 99.4H288.781L305.881 154ZM383.824 123.5C383.824 109.8 391.524 105.7 400.624 105.7H402.524V98.4C393.124 98.4 386.824 102.4 383.824 109.1V99.4H376.824V154H383.824V123.5ZM32 274H39V219.4H32V274ZM35.5 209.1C38.3 209.1 40.6 206.9 40.6 203.9C40.6 200.9 38.3 198.8 35.5 198.8C32.7 198.8 30.4 200.9 30.4 203.9C30.4 206.9 32.7 209.1 35.5 209.1ZM56.8516 259.2C56.8516 270.1 61.9516 274 71.4516 274H78.9516V268H72.5516C66.2516 268 63.9516 265.9 63.9516 259.2V225.3H78.9516V219.4H63.9516V205.7H56.8516V219.4H49.2516V225.3H56.8516V259.2ZM90.4961 274H97.4961V219.4H90.4961V274ZM93.9961 209.1C96.7961 209.1 99.0961 206.9 99.0961 203.9C99.0961 200.9 96.7961 198.8 93.9961 198.8C91.1961 198.8 88.8961 200.9 88.8961 203.9C88.8961 206.9 91.1961 209.1 93.9961 209.1ZM154.248 274H161.148V242C161.148 226 151.348 218.4 138.948 218.4C130.848 218.4 123.848 221.9 120.348 228.7V219.4H113.348V274H120.348V244.2C120.348 230.9 127.448 224.5 137.648 224.5C147.648 224.5 154.248 230.7 154.248 242.8V274ZM173.429 246.6C173.429 263.7 184.529 274.8 199.529 274.8C210.329 274.8 217.929 268.9 221.129 261.9V275.4C221.129 287.8 213.029 294.7 202.629 294.7C192.629 294.7 185.729 289.6 183.429 282.2H176.529C178.729 293.6 188.529 300.8 202.629 300.8C217.629 300.8 228.129 290.7 228.129 275.4V219.4H221.129V231.3C218.029 224.4 210.329 218.6 199.529 218.6C184.529 218.6 173.429 229.5 173.429 246.6ZM221.129 246.7C221.129 260.3 212.029 268.7 200.829 268.7C189.329 268.7 180.529 260.4 180.529 246.6C180.529 232.7 189.329 224.7 200.829 224.7C212.029 224.7 221.129 233.1 221.129 246.7Z" fill="black"/>
</svg>
