<?xml version="1.0" encoding="UTF-8"?><svg id="Livello_2" xmlns="http://www.w3.org/2000/svg" xmlns:xlink="http://www.w3.org/1999/xlink" viewBox="0 0 53.01 79.7"><defs><style>.cls-1{fill:#343434;}.cls-2{fill:url(#Nuovo_campione_sfumatura_2);stroke:#343434;stroke-miterlimit:10;}</style><linearGradient id="Nuovo_campione_sfumatura_2" x1="-6.16" y1="25.76" x2="35.62" y2="48.92" gradientUnits="userSpaceOnUse"><stop offset="0" stop-color="#efd9cb"/><stop offset="1" stop-color="#89cdd4"/></linearGradient></defs><g id="Livello_6"><g><path class="cls-2" d="M5.46,.63C.9,2.39,.97,24.25,9.21,45.59c6.47,16.76,15.19,29.8,21.74,33.41,1.79,.99,2.42-2,3.79-2.53s3.37,1.44,4.03-.49c2.42-7.08,.12-22.59-6.35-39.35C24.19,15.29,10.03-1.13,5.46,.63ZM24.01,48.38l-3.26-8.45-3.09,1.19-1.24-13.42,3.26,8.45,3.09-1.19,1.24,13.42Z"/><g><path class="cls-1" d="M45.78,57.48c-.95,0-1.68,.68-1.82,1.64h3.45c-.06-1-.67-1.64-1.63-1.64Z"/><path class="cls-1" d="M28.87,57.48c-.95,0-1.68,.68-1.82,1.64h3.45c-.06-1-.67-1.64-1.63-1.64Z"/><path class="cls-1" d="M50.74,52.32H2.27c-1.25,0-2.27,1.01-2.27,2.27v8.62c0,1.25,1.01,2.27,2.27,2.27H50.74c1.25,0,2.27-1.01,2.27-2.27v-8.62c0-1.25-1.01-2.27-2.27-2.27ZM10.7,61.95c0,.35-.18,.54-.56,.54H5.57c-.4,0-.66-.26-.66-.68v-6.38c0-.42,.26-.7,.66-.7h4.5c.38,0,.58,.19,.58,.52v.07c0,.34-.19,.52-.58,.52h-3.92v2.17h3.03c.4,0,.58,.17,.58,.49v.04c0,.34-.19,.52-.58,.52h-3.03v2.35h3.99c.38,0,.56,.17,.56,.49v.06Zm5.99,.16c.04,.06-.2,.44-.65,.44-.32,0-.54-.18-.73-.49l-1.28-1.82-1.25,1.81c-.2,.32-.44,.5-.74,.5-.42,0-.7-.4-.65-.44l1.91-2.49-1.88-2.52c-.04-.06,.22-.43,.64-.43,.32,0,.54,.17,.74,.49l1.28,1.83,1.26-1.83c.23-.36,.49-.49,.73-.49,.43,0,.7,.38,.66,.43l-1.91,2.52,1.87,2.49Zm4.29,.19c-.23,.2-.6,.35-1.09,.35-1.19,0-1.73-.66-1.73-1.91v-3.05h-.42c-.37,0-.52-.16-.52-.44v-.08c0-.29,.14-.44,.52-.44h.42v-.89c0-.41,.2-.56,.53-.56h.12c.31,0,.52,.12,.52,.56v.89h1.31c.37,0,.5,.14,.5,.43v.08c0,.3-.14,.46-.52,.46h-1.31v2.91c0,.72,.2,1.07,.77,1.07,.37,0,.64-.17,.82-.41,.04-.04,.34,.13,.34,.5,0,.19-.08,.37-.25,.53Zm4.43-4.34c-.18-.14-.41-.25-.73-.25-.94,0-1.31,.91-1.31,2.24v2.03c0,.43-.23,.56-.53,.56h-.13c-.31,0-.53-.13-.53-.56v-5.18s.19-.13,.43-.13c.28,0,.58,.12,.7,.58,.02,.12,.05,.26,.05,.43,.25-.71,.73-1.09,1.46-1.09,.6,0,.95,.29,.95,.77s-.34,.64-.36,.61Zm6.25,1.62c0,.25-.08,.35-.36,.35h-4.26c0,.07,.01,.14,.02,.22,.17,.95,.92,1.57,1.94,1.57s1.51-.44,1.81-.96c.02-.02,.62,.08,.62,.59,0,.25-.22,.58-.64,.84-.42,.26-1.03,.47-1.82,.47-1.82,0-3.05-1.21-3.05-3.01s1.25-3.06,2.95-3.06,2.77,1.18,2.77,2.9v.1Zm10.13,2.4c0,.43-.22,.56-.53,.56h-.12c-.32,0-.54-.13-.54-.56v-2.88c0-.97-.42-1.48-1.27-1.48-.61,0-1.16,.38-1.46,.96v3.39c0,.43-.22,.56-.53,.56h-.12c-.31,0-.54-.13-.54-.56v-2.83c0-1.02-.42-1.52-1.27-1.52-.6,0-1.16,.38-1.45,.96v3.39c0,.43-.23,.56-.53,.56h-.13c-.31,0-.53-.13-.53-.56v-5.18s.19-.13,.43-.13c.34,0,.7,.14,.74,.89,.4-.56,1-.97,1.79-.97,.94,0,1.58,.44,1.88,1.21,.4-.67,1.04-1.21,2-1.21,1.46,0,2.17,.89,2.17,2.37v3.02Zm6.78-2.4c0,.25-.08,.35-.36,.35h-4.26c0,.07,.01,.14,.02,.22,.17,.95,.92,1.57,1.94,1.57s1.51-.44,1.81-.96c.02-.02,.62,.08,.62,.59,0,.25-.22,.58-.64,.84-.42,.26-1.03,.47-1.82,.47-1.82,0-3.05-1.21-3.05-3.01s1.25-3.06,2.95-3.06,2.77,1.18,2.77,2.9v.1Z"/></g></g></g></svg>