<?xml version="1.0" encoding="UTF-8"?><svg id="Livello_2" xmlns="http://www.w3.org/2000/svg" xmlns:xlink="http://www.w3.org/1999/xlink" viewBox="0 0 69.4 59.15"><defs><style>.cls-1{fill:url(#Nuovo_campione_sfumatura_2);}.cls-2{fill:url(#Nuovo_campione_sfumatura_2-9);}.cls-2,.cls-3,.cls-4,.cls-5,.cls-6,.cls-7,.cls-8,.cls-9,.cls-10,.cls-11,.cls-12,.cls-13,.cls-14,.cls-15,.cls-16,.cls-17{stroke:#343434;stroke-miterlimit:10;}.cls-3{fill:url(#Nuovo_campione_sfumatura_2-8);}.cls-4{fill:url(#Nuovo_campione_sfumatura_2-7);}.cls-5{fill:url(#Nuovo_campione_sfumatura_2-6);}.cls-6{fill:url(#Nuovo_campione_sfumatura_2-5);}.cls-7{fill:url(#Nuovo_campione_sfumatura_2-2);}.cls-8{fill:url(#Nuovo_campione_sfumatura_2-3);}.cls-9{fill:url(#Nuovo_campione_sfumatura_2-4);}.cls-10{fill:url(#Nuovo_campione_sfumatura_2-10);}.cls-11{fill:url(#Nuovo_campione_sfumatura_2-15);}.cls-12{fill:url(#Nuovo_campione_sfumatura_2-16);}.cls-13{fill:url(#Nuovo_campione_sfumatura_2-17);}.cls-14{fill:url(#Nuovo_campione_sfumatura_2-14);}.cls-15{fill:url(#Nuovo_campione_sfumatura_2-13);}.cls-16{fill:url(#Nuovo_campione_sfumatura_2-12);}.cls-17{fill:url(#Nuovo_campione_sfumatura_2-11);}</style><linearGradient id="Nuovo_campione_sfumatura_2" x1=".51" y1="29.66" x2="68.64" y2="29.66" gradientUnits="userSpaceOnUse"><stop offset="0" stop-color="#efd9cb"/><stop offset="1" stop-color="#89cdd4"/></linearGradient><linearGradient id="Nuovo_campione_sfumatura_2-2" x1="34.89" y1="40.4" x2="47.52" y2="40.4" xlink:href="#Nuovo_campione_sfumatura_2"/><linearGradient id="Nuovo_campione_sfumatura_2-3" x1="4.04" y1="18.05" x2="29.87" y2="18.05" xlink:href="#Nuovo_campione_sfumatura_2"/><linearGradient id="Nuovo_campione_sfumatura_2-4" x1="37.53" y1="50.87" x2="53.5" y2="50.87" xlink:href="#Nuovo_campione_sfumatura_2"/><linearGradient id="Nuovo_campione_sfumatura_2-5" x1=".5" y1="42.75" x2="37.53" y2="42.75" xlink:href="#Nuovo_campione_sfumatura_2"/><linearGradient id="Nuovo_campione_sfumatura_2-6" x1="18.92" y1="39.28" x2="32.34" y2="39.28" xlink:href="#Nuovo_campione_sfumatura_2"/><linearGradient id="Nuovo_campione_sfumatura_2-7" x1="47.52" y1="46.29" x2="65.81" y2="46.29" xlink:href="#Nuovo_campione_sfumatura_2"/><linearGradient id="Nuovo_campione_sfumatura_2-8" x1="44.96" y1="40.47" x2="47.64" y2="40.47" xlink:href="#Nuovo_campione_sfumatura_2"/><linearGradient id="Nuovo_campione_sfumatura_2-9" x1="21.76" y1="43.37" x2="34.89" y2="43.37" xlink:href="#Nuovo_campione_sfumatura_2"/><linearGradient id="Nuovo_campione_sfumatura_2-10" x1="52.03" y1="29.66" x2="68.9" y2="29.66" xlink:href="#Nuovo_campione_sfumatura_2"/><linearGradient id="Nuovo_campione_sfumatura_2-11" x1="44.42" y1="15.59" x2="65.26" y2="15.59" xlink:href="#Nuovo_campione_sfumatura_2"/><linearGradient id="Nuovo_campione_sfumatura_2-12" x1="46.22" y1="30.86" x2="54.25" y2="30.86" xlink:href="#Nuovo_campione_sfumatura_2"/><linearGradient id="Nuovo_campione_sfumatura_2-13" x1="42.08" y1="23.56" x2="53.77" y2="23.56" xlink:href="#Nuovo_campione_sfumatura_2"/><linearGradient id="Nuovo_campione_sfumatura_2-14" x1="27.06" y1="20.76" x2="42.1" y2="20.76" xlink:href="#Nuovo_campione_sfumatura_2"/><linearGradient id="Nuovo_campione_sfumatura_2-15" x1="20.7" y1="26.73" x2="35.14" y2="26.73" xlink:href="#Nuovo_campione_sfumatura_2"/><linearGradient id="Nuovo_campione_sfumatura_2-16" x1="32.34" y1="33.14" x2="46.32" y2="33.14" xlink:href="#Nuovo_campione_sfumatura_2"/><linearGradient id="Nuovo_campione_sfumatura_2-17" x1="18.57" y1="8.88" x2="46.16" y2="8.88" xlink:href="#Nuovo_campione_sfumatura_2"/></defs><g id="Livello_6"><g><path class="cls-1" d="M68.58,39.2c0,1.61-2.47,.07-2.75,1.38-1.35,6.23-4.38,11.65-9.59,15.78-1.33,1.05-2.53-3.05-4.19-1.89-1.75,1.23-9.16,4.08-12.8,4.08-2.1,0-.27-1.96-2.59-3.04-3.73-1.73-3.3,.91-14.5-6.92-1.65-1.16-9.26,7.74-10.97,6.95C6,53.17,.97,36.93,.52,32.09c-.13-1.41,3.2-1.3,3.2-3.06,0-7.76,4.11-16.54,9.44-22.46,.68-.76,4.7,1.86,7.16,.22C25.75,3.16,36.35,.77,41.22,.77c2.59,0,2.09,1.24,4.31,1.92,7.33,2.23,13.13,5.93,19.54,10.9,1.52,1.18-1.66,2.67,.21,6.3,4.13,8.04,3.3,16.42,3.3,19.3Z"/><path class="cls-7" d="M44.96,37.28c1,2.84,1.78,4.48,2.47,5.41,.23,.31,.02,.75-.37,.76-7.3,.25-8.95-.28-12.17-4.93"/><path class="cls-8" d="M4.09,30c-.71-7.81,6.31-19.93,8.32-23.2,.32-.52,.93-.8,1.53-.69,9.35,1.75,15.93,12.46,15.93,12.46"/><path class="cls-9" d="M53.5,54.26c-6.68,4.38-14.27,4.37-14.27,4.37-.82,.09-1.57-.5-1.64-1.33-.3-3.31,.55-11.19,2.24-14.22"/><path class="cls-6" d="M37.53,55.65c-9.94-.43-15.77-7.4-15.77-7.4-2.84,2.67-9.11,7.33-10.73,7.89C3.08,47.4,1.01,36.52,.51,32.7c-.11-.82,.37-1.6,1.14-1.88,6.18-2.24,8.95-1.52,18.9-.56"/><path class="cls-5" d="M23.87,46.39c-4.96-5.28-4.55-8.55-4.94-11.21-.1-.68,.31-1.32,.97-1.52,3.12-.95,9.97-1.7,12.45-1.45"/><path class="cls-4" d="M52.25,36.07s-1.48,5.36-4.73,7.02c.73,4.2,5.18,10.6,7.48,13.05,.47,.5,1.27,.49,1.73-.02,0,0,6.74-4.42,9.07-15.45"/><line class="cls-3" x1="44.96" y1="37.28" x2="47.64" y2="43.65"/><path class="cls-2" d="M34.89,38.53c-1.62-.64-10.72,7.06-13.13,9.73"/><path class="cls-10" d="M64.4,18.57c4.82,7.22,4.59,16.46,4.45,20.23-.03,.84-.65,1.53-1.48,1.68-4.54,.8-12.02-.16-15.34-2.4"/><path class="cls-17" d="M44.42,2.5c10.72,2.55,18.24,9.02,20.31,10.78,.35,.3,.54,.73,.53,1.19-.08,8.94-11.52,14.23-11.52,14.23"/><path class="cls-16" d="M52.24,25.64c1.68,1.85,1.88,6.7,2.02,8.94,.04,.7-.46,1.33-1.15,1.42-2,.27-5.56-.31-6.88-1.72"/><path class="cls-15" d="M42.08,17.25c3.85,0,9.39,3.5,11.32,5.59,.38,.41,.54,1.03,.17,1.44-3.78,4.25-8.38,5.79-8.07,5.55"/><path class="cls-14" d="M27.06,21.03c2.6-4.1,10.88-5.4,13.57-5.84,.61-.1,1.19,.29,1.32,.89,.62,2.89-.98,10.26-.98,10.26"/><path class="cls-11" d="M20.84,33.41c-.8-3.82,1.9-10.31,2.99-12.69,.26-.58,.97-.83,1.58-.57,4.52,1.94,9.73,7.01,9.73,7.01"/><circle class="cls-12" cx="39.33" cy="33.14" r="6.99"/><path class="cls-13" d="M18.57,8.03C24.62,2.58,37.36,.91,41.31,.51c.8-.08,1.59,.25,2.11,.86,5.56,6.58,.92,15.88,.92,15.88"/></g></g></svg>