<?xml version="1.0" encoding="UTF-8"?><svg id="Livello_2" xmlns="http://www.w3.org/2000/svg" xmlns:xlink="http://www.w3.org/1999/xlink" viewBox="0 0 81.89 65.33"><defs><style>.cls-1{fill:url(#Nuovo_campione_sfumatura_2-7);}.cls-1,.cls-2,.cls-3,.cls-4,.cls-5,.cls-6,.cls-7,.cls-8,.cls-9{stroke:#343434;stroke-miterlimit:10;}.cls-2{fill:url(#Nuovo_campione_sfumatura_2-6);}.cls-3{fill:url(#Nuovo_campione_sfumatura_2-5);}.cls-4{fill:url(#Nuovo_campione_sfumatura_2-2);}.cls-5{fill:url(#Nuovo_campione_sfumatura_2-3);}.cls-6{fill:url(#Nuovo_campione_sfumatura_2-4);}.cls-7{fill:url(#Sfumatura_senza_nome_9);}.cls-8{fill:url(#Nuovo_campione_sfumatura_2);}.cls-9{fill:url(#Sfumatura_senza_nome_10);}</style><linearGradient id="Nuovo_campione_sfumatura_2" x1="9.03" y1="36.19" x2="57.31" y2="75.16" gradientUnits="userSpaceOnUse"><stop offset="0" stop-color="#efd9cb"/><stop offset="1" stop-color="#89cdd4"/></linearGradient><linearGradient id="Sfumatura_senza_nome_9" x1="17.82" y1="25.29" x2="66.11" y2="64.26" gradientUnits="userSpaceOnUse"><stop offset="0" stop-color="#efd9cb"/><stop offset=".11" stop-color="#e6d9cd"/><stop offset="1" stop-color="#89cdd4"/></linearGradient><linearGradient id="Sfumatura_senza_nome_10" x1="30.92" y1="9.07" x2="79.2" y2="48.03" gradientUnits="userSpaceOnUse"><stop offset="0" stop-color="#efd9cb"/><stop offset=".11" stop-color="#e6d9cd"/><stop offset=".18" stop-color="#e0d8cd"/><stop offset=".31" stop-color="#d4d7cf"/><stop offset="1" stop-color="#89cdd4"/></linearGradient><linearGradient id="Nuovo_campione_sfumatura_2-2" x1="18.98" y1="23.86" x2="67.26" y2="62.82" xlink:href="#Nuovo_campione_sfumatura_2"/><linearGradient id="Nuovo_campione_sfumatura_2-3" x1="29.58" y1="10.72" x2="77.87" y2="49.68" xlink:href="#Nuovo_campione_sfumatura_2"/><linearGradient id="Nuovo_campione_sfumatura_2-4" x1="24.02" y1="17.61" x2="72.3" y2="56.58" xlink:href="#Nuovo_campione_sfumatura_2"/><linearGradient id="Nuovo_campione_sfumatura_2-5" x1="35.15" y1="3.82" x2="83.43" y2="42.79" xlink:href="#Nuovo_campione_sfumatura_2"/><linearGradient id="Nuovo_campione_sfumatura_2-6" x1="31.59" y1="8.23" x2="79.87" y2="47.2" xlink:href="#Nuovo_campione_sfumatura_2"/><linearGradient id="Nuovo_campione_sfumatura_2-7" x1="26.7" y1="14.3" x2="74.98" y2="53.26" xlink:href="#Nuovo_campione_sfumatura_2"/></defs><g id="Livello_6"><g><path class="cls-8" d="M35.4,63.46c1.83,1.83,4.8,1.83,6.63,0,1.83-1.83,1.83-4.8,0-6.63-.91-.91-2.11-1.37-3.31-1.37s-2.4,.46-3.31,1.37c-1.83,1.83-1.83,4.8,0,6.63Z"/><path class="cls-7" d="M57.7,63.46c1.83,1.83,4.8,1.83,6.63,0,1.83-1.83,1.83-4.8,0-6.63-.91-.91-2.11-1.37-3.31-1.37s-2.4,.46-3.31,1.37c-1.83,1.83-1.83,4.8,0,6.63Z"/><g><g><path class="cls-9" d="M79.14,13.63H24.76l6.63,30.82h40.58c.98,0,1.84-.63,2.13-1.56,1.56-4.96,6.32-20.36,7.26-26.69,.2-1.35-.86-2.56-2.23-2.56Z"/><path class="cls-4" d="M71.4,48.38H32.01L21.99,2.43c-.24-1.11-1.2-1.86-2.28-1.92-.02,0-.03,0-.05,0h-.06s-.04,0-.06,0H1.67C1.02,.5,.5,1.02,.5,1.67v2.95c0,.65,.52,1.17,1.17,1.17H15.78l10.42,47.75c.24,1.09,1.16,1.84,2.22,1.91,.06,0,.12,.02,.18,.02h42.81c1.04,0,1.88-.84,1.88-1.88v-3.32c0-1.04-.84-1.88-1.88-1.88Z"/></g><g><line class="cls-5" x1="52.82" y1="19.21" x2="52.82" y2="39.72"/><line class="cls-6" x1="38.71" y1="19.21" x2="38.71" y2="39.72"/><line class="cls-3" x1="66.92" y1="19.21" x2="66.92" y2="39.72"/><line class="cls-2" x1="33.51" y1="25.58" x2="72.66" y2="25.58"/><line class="cls-1" x1="35.02" y1="34.99" x2="69.66" y2="34.99"/></g></g></g></g></svg>