<?xml version="1.0" encoding="UTF-8"?><svg id="Livello_2" xmlns="http://www.w3.org/2000/svg" xmlns:xlink="http://www.w3.org/1999/xlink" viewBox="0 0 70.15 62.08"><defs><style>.cls-1{fill:url(#Nuovo_campione_sfumatura_2);}.cls-2{fill:url(#Nuovo_campione_sfumatura_2-7);}.cls-2,.cls-3,.cls-4,.cls-5,.cls-6,.cls-7,.cls-8,.cls-9{stroke:#343434;stroke-miterlimit:10;}.cls-3{fill:url(#Nuovo_campione_sfumatura_2-6);}.cls-4{fill:url(#Nuovo_campione_sfumatura_2-5);}.cls-5{fill:url(#Nuovo_campione_sfumatura_2-2);}.cls-6{fill:url(#Nuovo_campione_sfumatura_2-3);}.cls-7{fill:url(#Nuovo_campione_sfumatura_2-4);}.cls-8{fill:url(#Sfumatura_senza_nome_2);}.cls-9{fill:none;}</style><linearGradient id="Nuovo_campione_sfumatura_2" x1="42.66" y1="3.34" x2="59.04" y2="20.28" gradientTransform="translate(34.99 -37.46) rotate(50.77)" gradientUnits="userSpaceOnUse"><stop offset="0" stop-color="#efd9cb"/><stop offset="1" stop-color="#89cdd4"/></linearGradient><linearGradient id="Sfumatura_senza_nome_2" x1="33.71" y1="12" x2="50.08" y2="28.94" gradientUnits="userSpaceOnUse"><stop offset=".14" stop-color="#efd9cb"/><stop offset="1" stop-color="#89cdd4"/></linearGradient><linearGradient id="Nuovo_campione_sfumatura_2-2" x1="46.19" y1="-.07" x2="62.56" y2="16.87" gradientTransform="matrix(1, 0, 0, 1, 0, 0)" xlink:href="#Nuovo_campione_sfumatura_2"/><linearGradient id="Nuovo_campione_sfumatura_2-3" x1="45.79" y1=".32" x2="62.17" y2="17.26" gradientTransform="matrix(1, 0, 0, 1, 0, 0)" xlink:href="#Nuovo_campione_sfumatura_2"/><linearGradient id="Nuovo_campione_sfumatura_2-4" x1="-2.55" y1="47.05" x2="13.82" y2="63.99" gradientTransform="matrix(1, 0, 0, 1, 0, 0)" xlink:href="#Nuovo_campione_sfumatura_2"/><linearGradient id="Nuovo_campione_sfumatura_2-5" x1="4.5" y1="40.23" x2="20.87" y2="57.17" gradientTransform="matrix(1, 0, 0, 1, 0, 0)" xlink:href="#Nuovo_campione_sfumatura_2"/><linearGradient id="Nuovo_campione_sfumatura_2-6" x1="9.83" y1="35.08" x2="26.21" y2="52.02" gradientTransform="matrix(1, 0, 0, 1, 0, 0)" xlink:href="#Nuovo_campione_sfumatura_2"/><linearGradient id="Nuovo_campione_sfumatura_2-7" x1="9.87" y1="35.04" x2="26.25" y2="51.98" gradientTransform="matrix(1, 0, 0, 1, 0, 0)" xlink:href="#Nuovo_campione_sfumatura_2"/></defs><g id="Livello_6"><g><ellipse class="cls-1" cx="56.97" cy="18.14" rx="14.79" ry="8.83" transform="translate(6.88 50.8) rotate(-50.77)"/><g><path class="cls-8" d="M69.29,5.5C23.9-10.91,12.43,17.07,15.19,32.04c1.22,6.63,7.42,13.37,14.51,15.7,7.23,2.38,15.6,.77,20.79-3.93,3.93-3.55,7-6.71,7.19-15.57,.37-17.29,14.34-21.75,11.61-22.74Z"/><path class="cls-5" d="M69.59,5.69c-.49,8.48-1.43,13.71-8.16,20.88-1.3,1.38-2.64,2.53-3.96,3.49"/><path class="cls-9" d="M20.29,31.53c7.3,16.82,23.19,13.71,32.36,10.16"/><path class="cls-6" d="M61.42,26.57c.42-7.17,3.89-12.79,7.32-12.59"/><path class="cls-7" d="M14.94,57.27c.75,.33-4.07,4.57-8.91,4.29-2.4-.14-6.1-2.67-5.45-5.84,.44-2.12,1.51-3.44,4.57-5.59,.97-.68-.46,2.63,9.79,7.14Z"/><path class="cls-4" d="M25.56,52.72c1.6,.06-5,7.14-10.21,4.65-4.47-2.14-7.46-2.86-10.11-7.8-1.9-3.54,3.43-10.04,3.88-7.7,1.92,9.97,14.58,10.78,16.44,10.85Z"/><path class="cls-3" d="M33,48.54s-4.67,4.29-7.43,4.18c-7.92-.32-15.53-3.26-16.48-11.32-.61-5.14,6.5-7.76,6.5-7.76,4.53,10.88,10.94,13.46,17.41,14.91Z"/><path class="cls-2" d="M15.06,45.43c3.13,3.02,6.55,4.95,14.97,5.44"/></g></g></g></svg>