<?xml version="1.0" encoding="UTF-8"?><svg id="Livello_2" xmlns="http://www.w3.org/2000/svg" xmlns:xlink="http://www.w3.org/1999/xlink" viewBox="0 0 57.44 61.4"><defs><style>.cls-1{fill:url(#Nuovo_campione_sfumatura_2-2);}.cls-1,.cls-2{stroke:#343434;stroke-miterlimit:10;}.cls-3{fill:#343434;}.cls-2{fill:url(#Nuovo_campione_sfumatura_2);}</style><linearGradient id="Nuovo_campione_sfumatura_2" x1="11.94" y1="29.73" x2="45.83" y2="48.37" gradientUnits="userSpaceOnUse"><stop offset="0" stop-color="#efd9cb"/><stop offset="1" stop-color="#89cdd4"/></linearGradient><linearGradient id="Nuovo_campione_sfumatura_2-2" x1="48.44" y1="31.99" x2="56.91" y2="34.25" xlink:href="#Nuovo_campione_sfumatura_2"/></defs><g id="Livello_6"><g><path class="cls-2" d="M25.89,26.09c-13.83,0-25.39,2.83-25.39,8.35s5.24,13.98,11.71,13.98c3.86,0,9.7-3.93,13.57-8.24,3.86,4.17,9.49,7.89,13.25,7.89,6.46,0,11.71-8.46,11.71-13.98s-11.01-8-24.83-8Z"/><path class="cls-1" d="M56.94,.5h-4.66V50.62c0,1.31,.42,5.45-2.09,5.47-3.95,.02-10.87,.1-14.35,.13-.5-.42-1.2-.69-1.98-.69h-3.18c-1.51,0-2.75,1-2.75,2.22v.94c0,1.22,1.24,2.22,2.75,2.22h3.18c.99,0,1.86-.43,2.34-1.07,4.08,.04,12.18,.07,16.5-.18,1.87-.11,3.4-.95,3.92-2.4,.5-1.39,.21-2.45,.31-6.63V.5Z"/><g><path class="cls-3" d="M43.87,14.66c-.95,0-1.68,.68-1.82,1.64h3.45c-.06-1-.67-1.64-1.63-1.64Z"/><polygon class="cls-3" points="16.33 16.4 18.83 16.4 17.58 13.11 16.33 16.4"/><path class="cls-3" d="M54.62,9.17H6.25c-1.28,0-2.32,1.04-2.32,2.32v9.17c0,1.28,1.04,2.32,2.32,2.32H54.62c1.28,0,2.32-1.04,2.32-2.32V11.5c0-1.28-1.04-2.32-2.32-2.32ZM20.55,19.73c-.28,0-.56-.13-.73-.58l-.68-1.76h-3.11l-.68,1.77c-.16,.43-.42,.56-.68,.56-.36,0-.71-.26-.67-.37l2.76-7.12c.1-.25,.29-.4,.85-.4s.76,.14,.85,.4l2.78,7.12c.04,.1-.31,.37-.68,.37Zm4.13-.9c.97,0,1.48-.49,1.74-1.13,.04-.06,.71,.02,.71,.54,0,.26-.19,.66-.6,.98-.4,.34-1.02,.6-1.87,.6-1.74,0-3-1.27-3-3.05s1.27-3.02,3-3.02c.86,0,1.48,.26,1.88,.6,.4,.32,.59,.72,.59,1,0,.49-.67,.59-.71,.53-.26-.64-.76-1.13-1.74-1.13-1.08,0-1.9,.85-1.9,2.03s.8,2.05,1.9,2.05Zm6.77,.65c-.23,.2-.6,.35-1.09,.35-1.19,0-1.73-.66-1.73-1.91v-3.05h-.42c-.37,0-.52-.16-.52-.44v-.08c0-.29,.14-.44,.52-.44h.42v-.89c0-.41,.2-.56,.53-.56h.12c.31,0,.52,.12,.52,.56v.89h1.31c.37,0,.5,.14,.5,.43v.08c0,.3-.14,.46-.52,.46h-1.31v2.91c0,.72,.2,1.07,.77,1.07,.37,0,.64-.17,.82-.41,.04-.04,.34,.13,.34,.5,0,.19-.08,.37-.25,.53Zm2.44-.32c0,.43-.22,.56-.53,.56h-.12c-.31,0-.54-.13-.54-.56v-4.74c0-.43,.23-.58,.54-.58h.12c.31,0,.53,.13,.53,.58v4.74Zm-.58-6.42c-.44,0-.71-.26-.71-.68s.26-.7,.72-.7,.7,.26,.7,.7-.25,.68-.71,.68Zm5.1,6.63c-.11,.26-.35,.37-.73,.37-.41,0-.61-.08-.72-.35l-2.12-5.21c-.02-.07,.24-.35,.62-.35,.34,0,.55,.14,.76,.71l1.45,4.07,1.5-4.07c.2-.56,.43-.71,.73-.71,.37,0,.64,.29,.61,.35l-2.1,5.18Zm8.24-2.61c0,.25-.08,.35-.36,.35h-4.26c0,.07,.01,.14,.02,.22,.17,.95,.92,1.57,1.94,1.57s1.51-.44,1.81-.96c.02-.02,.62,.08,.62,.59,0,.25-.22,.58-.64,.84-.42,.26-1.03,.47-1.82,.47-1.82,0-3.05-1.21-3.05-3.01s1.25-3.06,2.95-3.06,2.77,1.18,2.77,2.9v.1Z"/></g></g></g></svg>