<svg width="24" height="24" viewBox="0 0 24 24" fill="none" xmlns="http://www.w3.org/2000/svg">
<path d="M16.5001 3.75023C16.5 2.87038 16.8093 2.0185 17.3738 1.34364C17.9384 0.668786 18.7222 0.213922 19.5883 0.0586326C20.4543 -0.096657 21.3474 0.057517 22.1112 0.494181C22.8751 0.930844 23.4611 1.62219 23.7667 2.44726C24.0723 3.27234 24.078 4.1786 23.7829 5.00749C23.4878 5.83637 22.9107 6.53511 22.1524 6.98144C21.3942 7.42777 20.5032 7.59328 19.6352 7.449C18.7673 7.30473 17.9777 6.85986 17.4046 6.19223L7.32763 10.8722C7.55929 11.6064 7.55929 12.3941 7.32763 13.1282L17.4046 17.8082C18.0104 17.1037 18.8561 16.6492 19.7779 16.5327C20.6997 16.4162 21.6319 16.6461 22.3939 17.1778C23.1559 17.7094 23.6933 18.5051 23.9021 19.4104C24.1109 20.3158 23.9762 21.2664 23.524 22.0781C23.0718 22.8898 22.3345 23.5047 21.4548 23.8037C20.575 24.1026 19.6157 24.0644 18.7626 23.6963C17.9094 23.3283 17.2233 22.6566 16.8372 21.8115C16.4511 20.9664 16.3924 20.0081 16.6726 19.1222L6.59563 14.4422C6.09678 15.0236 5.43186 15.4382 4.6903 15.6304C3.94874 15.8225 3.16613 15.7829 2.44774 15.5169C1.72935 15.251 1.10965 14.7714 0.671994 14.1427C0.234341 13.5139 -0.000265121 12.7663 -0.000265121 12.0002C-0.000265121 11.2342 0.234341 10.4865 0.671994 9.8578C1.10965 9.22908 1.72935 8.74948 2.44774 8.48351C3.16613 8.21754 3.94874 8.17796 4.6903 8.3701C5.43186 8.56224 6.09678 8.97687 6.59563 9.55823L16.6726 4.87823C16.5579 4.51323 16.4998 4.13283 16.5001 3.75023V3.75023Z" fill="black"/>
</svg>
