<?xml version="1.0" encoding="UTF-8"?><svg id="Livello_2" xmlns="http://www.w3.org/2000/svg" xmlns:xlink="http://www.w3.org/1999/xlink" viewBox="0 0 66.75 66.74"><defs><style>.cls-1{fill:url(#Nuovo_campione_sfumatura_2-2);}.cls-1,.cls-2,.cls-3{stroke:#343434;stroke-miterlimit:10;}.cls-2{fill:none;}.cls-3{fill:url(#Nuovo_campione_sfumatura_2);}</style><linearGradient id="Nuovo_campione_sfumatura_2" x1="17.66" y1="15.46" x2="54.93" y2="49.91" gradientUnits="userSpaceOnUse"><stop offset="0" stop-color="#efd9cb"/><stop offset="1" stop-color="#89cdd4"/></linearGradient><linearGradient id="Nuovo_campione_sfumatura_2-2" x1="33.93" y1="-2.14" x2="71.2" y2="32.31" xlink:href="#Nuovo_campione_sfumatura_2"/></defs><g id="Livello_6"><g><path class="cls-3" d="M38.96,52.25c3.29,10.73,9.13,13.93,9.13,13.93,9.79-4.33,23.53-20.14,16-44.71C60.93,11.18,50.63,3.6,39.71,1.24c-2.47-.54-12.1-2.32-22.21,2.82-2.32,1.18-9.13,4.76-13.46,12.8C2.83,19.1,.07,24.4,.56,31.64c.6,8.88,5.68,14.55,6.87,15.81,5.16,5.5,11.34,7.17,14.49,7.72,5.16,.89,9.18-.04,10.16-.28,2.11-.52,8.84-2.19,13.27-8.75,.89-1.32,4.7-7.29,3.2-15.06-.29-1.49-1.36-6.65-6.02-10.73-1.05-.92-4.62-3.96-10.16-4.42-1.66-.14-6.33-.53-10.64,2.64-3.82,2.81-5.06,6.73-5.46,8.38-.36,1.51-1.16,4.83,.47,8.38,1.46,3.18,4.79,6.32,8.85,6.49,3.4,.14,6.29-1.83,6.71-2.13,.18-.12,.6-.43,1.1-.88,.73-.66,2.55-2.29,3.2-4.52,.66-2.25,.21-5.41-2.07-7.53-2.78-2.58-6.38-1.83-6.59-1.79-3.89,.87-5.25,4.56-5.36,4.89-.2,.56-.93,2.89,.19,5.46,.19,.43,1.33,2.92,4.14,3.95,1.38,.5,4.7,.49,5.39,.41"/><path class="cls-1" d="M38.86,5.38c3.29,0,15.44,5.84,19.2,13.18"/><path class="cls-2" d="M60.98,45.1c-2.92,7.67-3.58,10.35-11.48,15.34"/><path class="cls-2" d="M6.11,23.07c-4.71,15.53,5.71,25.51,12.61,26.73"/></g></g></svg>