<svg width="20" height="22" viewBox="0 0 20 22" fill="none" xmlns="http://www.w3.org/2000/svg">
<path d="M5.5 1.25C5.5 1.05109 5.57902 0.860322 5.71967 0.71967C5.86032 0.579018 6.05109 0.5 6.25 0.5H12.25C12.4489 0.5 12.6397 0.579018 12.7803 0.71967C12.921 0.860322 13 1.05109 13 1.25C13 1.44891 12.921 1.63968 12.7803 1.78033C12.6397 1.92098 12.4489 2 12.25 2H6.25C6.05109 2 5.86032 1.92098 5.71967 1.78033C5.57902 1.63968 5.5 1.44891 5.5 1.25ZM9.25 6.5C9.05109 6.5 8.86032 6.57902 8.71967 6.71967C8.57902 6.86032 8.5 7.05109 8.5 7.25V13.25C8.5 13.4489 8.57902 13.6397 8.71967 13.7803C8.86032 13.921 9.05109 14 9.25 14C9.44891 14 9.63968 13.921 9.78033 13.7803C9.92098 13.6397 10 13.4489 10 13.25V7.25C10 7.05109 9.92098 6.86032 9.78033 6.71967C9.63968 6.57902 9.44891 6.5 9.25 6.5ZM18.25 12.5C18.25 14.8869 17.3018 17.1761 15.614 18.864C13.9261 20.5518 11.6369 21.5 9.25 21.5C6.86305 21.5 4.57387 20.5518 2.88604 18.864C1.19821 17.1761 0.25 14.8869 0.25 12.5C0.25 10.1131 1.19821 7.82387 2.88604 6.13604C4.57387 4.44821 6.86305 3.5 9.25 3.5C11.6369 3.5 13.9261 4.44821 15.614 6.13604C17.3018 7.82387 18.25 10.1131 18.25 12.5V12.5ZM16.75 12.5C16.75 10.5109 15.9598 8.60322 14.5533 7.1967C13.1468 5.79018 11.2391 5 9.25 5C7.26088 5 5.35322 5.79018 3.9467 7.1967C2.54018 8.60322 1.75 10.5109 1.75 12.5C1.75 14.4891 2.54018 16.3968 3.9467 17.8033C5.35322 19.2098 7.26088 20 9.25 20C11.2391 20 13.1468 19.2098 14.5533 17.8033C15.9598 16.3968 16.75 14.4891 16.75 12.5ZM16.6795 2.963C16.6103 2.89137 16.5276 2.83423 16.4361 2.79492C16.3445 2.75562 16.2461 2.73493 16.1466 2.73406C16.047 2.7332 15.9482 2.75217 15.856 2.78988C15.7639 2.82759 15.6801 2.88328 15.6097 2.9537C15.5393 3.02412 15.4836 3.10786 15.4459 3.20003C15.4082 3.29221 15.3892 3.39097 15.3901 3.49055C15.3909 3.59014 15.4116 3.68855 15.4509 3.78005C15.4902 3.87156 15.5474 3.95431 15.619 4.0235L17.7235 6.128C17.7927 6.19963 17.8754 6.25677 17.9669 6.29608C18.0584 6.33538 18.1569 6.35607 18.2564 6.35694C18.356 6.3578 18.4548 6.33883 18.547 6.30112C18.6391 6.26341 18.7229 6.20772 18.7933 6.1373C18.8637 6.06688 18.9194 5.98314 18.9571 5.89097C18.9948 5.79879 19.0138 5.70003 19.0129 5.60045C19.0121 5.50086 18.9914 5.40245 18.9521 5.31095C18.9128 5.21944 18.8556 5.13669 18.784 5.0675L16.6795 2.963V2.963Z" fill="black"/>
</svg>
