<?xml version="1.0" encoding="UTF-8"?><svg id="Livello_2" xmlns="http://www.w3.org/2000/svg" xmlns:xlink="http://www.w3.org/1999/xlink" viewBox="0 0 62.33 64.37"><defs><style>.cls-1{fill:url(#Nuovo_campione_sfumatura_2);stroke:#343434;stroke-miterlimit:10;}</style><linearGradient id="Nuovo_campione_sfumatura_2" x1="21.62" y1="13.09" x2="50.35" y2="48.45" gradientUnits="userSpaceOnUse"><stop offset="0" stop-color="#efd9cb"/><stop offset="1" stop-color="#89cdd4"/></linearGradient></defs><g id="Livello_6"><path class="cls-1" d="M41.49,.5V6.11h7.72l-15,15c-3.25-1.78-6.97-2.8-10.93-2.8C10.7,18.31,.5,28.51,.5,41.09s10.2,22.78,22.78,22.78,22.78-10.2,22.78-22.78c0-4.92-1.57-9.46-4.22-13.18l14.38-14.38v7.72h5.61V.5h-20.34ZM23.19,54.89c-7.34,0-13.29-5.95-13.29-13.29s5.95-13.29,13.29-13.29,13.29,5.95,13.29,13.29-5.95,13.29-13.29,13.29Z"/></g></svg>