<?xml version="1.0" encoding="UTF-8"?><svg id="Livello_2" xmlns="http://www.w3.org/2000/svg" viewBox="0 0 47.38 47.38"><defs><style>.cls-1{fill:#343434;stroke:#f2f2f2;}.cls-1,.cls-2{stroke-miterlimit:10;stroke-width:.5px;}.cls-2{fill:#f2f2f2;stroke:#343434;}</style></defs><g id="Livello_5"><g><rect class="cls-2" x=".25" y=".25" width="46.88" height="46.88" rx="10.24" ry="10.24"/><g><path class="cls-1" d="M5.97,28.92c2.63,1.87,5.32,3.02,9.31,.4,1.09,5.65,4.75,6.96,5.63,7.4,.18,.09-8.26,2.31-9.19,2.33-.84,.02-2.9,.24-4.12-.11,0,0-1.95-.39-2.12-1.79s0-5.72,.49-8.23Z"/><path class="cls-1" d="M8.83,19.5c-1.68,3.28-2.61,7.91-2.86,9.42,2.9,2.14,5.61,2.93,9.31,.4-.33-2.3,.37-5.34,.95-6.52,.09,.05-4.8,.52-7.4-3.3Z"/><path class="cls-1" d="M15.69,11.62c-5.01,3.1-6.85,7.88-6.85,7.88,2.01,3.05,6.17,3.52,7.4,3.3,0,0,.98-3.02,4.33-5.71-2.08-.44-4.31-.88-4.87-5.47Z"/><path class="cls-1" d="M25.18,8.35c-2.11,.07-6.56,1.31-9.5,3.27,.54,5.54,4.87,5.47,4.87,5.47,0,0,3-1.81,5.42-1.83,.08,0-.19-.16-.23-.23-.52-.83-2.71-4.41-.56-6.68Z"/><path class="cls-1" d="M36.47,11.7c-3.59-2.82-7.41-3.8-11.28-3.34-2.36,2.68,.71,6.9,.71,6.9,0,0,2.82-.36,5.51,1.59,0,0,.3-4.88,5.06-5.15Z"/><path class="cls-1" d="M41.66,20.4c-.76-4.43-3.96-7.8-5.19-8.71-3.8,.22-5.2,3.85-5.06,5.15,1.11,.95,3.01,2.55,3.47,5.5,1.99-3.65,5.9-2.48,6.79-1.94Z"/><path class="cls-1" d="M40.02,30.4c.23-.41,2.81-4.83,1.64-10-1.1-.76-5.13-1.39-6.79,1.94,.48,2.16-.57,4.22-.57,4.22,1.4-.39,5.17,.26,5.71,3.84Z"/><path class="cls-1" d="M31.91,37.04c2.48-.56,6.61-3.72,8.11-6.64-.13-2.1-2.59-4.46-5.71-3.84-.67,1.82-3.17,3.5-3.17,3.5,2.88,1.37,1.89,5.97,.77,6.98Z"/><path class="cls-1" d="M26.23,30.72c1.3,2.71-1.46,6.1-3.85,6.48,0,0,0,0,0,0,1.96,.44,6.13,.89,9.52-.15,.53-.15,2.67-5.11-.77-6.98,0,0,0,0,0,0-1.96,1.13-3.73,.92-4.9,.66,0,0,0,0,0,0Z"/><path class="cls-1" d="M23.13,28.57c-.97,2.74-4.91,3.48-7.47,2.26,.88,3.39,3.93,5.74,6.73,6.36,3.03-.64,5-4.53,3.85-6.48-1.55-.43-2.35-1.1-3.1-2.14Z"/><path class="cls-1" d="M23.13,28.57c-.24-.45-1.05-2.41,.16-4.35,.06-.1-.31,.4-.34,.42-2.14,.99-4.7-.95-5.97-3.43-1.13,1.37-2.53,6.24-1.35,9.52,.69,.87,6.34,1.45,7.5-2.16Z"/><path class="cls-1" d="M25.98,22.98c-.59-.24-2.16,.03-2.79,1.42-.05,.11-.13,.19-.24,.23-1.63,.53-3.95,.06-5.97-3.43,1.8-3.6,6.14-6.35,10.2-5.94-3.4,3.29-2.18,6.74-1.21,7.72Z"/><path class="cls-1" d="M34.98,23.96c-3.22-2.5-6.8-1.04-7.5,.5-.29-.54-.57-1.16-1.49-1.49-2.12-2.41-.7-6.14,1.21-7.72,4.21,.22,8.21,4.53,7.79,8.7Z"/><path class="cls-1" d="M27.05,26.01s.66-.46,.42-1.54c1.55-2.42,5.43-2.31,7.5-.5-.18,3.7-3.73,6.87-6.81,6.95,1.53-3.79-1.12-4.91-1.12-4.91Z"/><path class="cls-1" d="M27.49,24.46c-.19-.59-.7-1.13-1.19-1.36-.81-.37-1.73-.12-2.39,.43-.29,.24-.53,.52-.72,.84-.35,.62-.49,1.41-.53,2.11s.23,1.35,.45,2c.13,.38,.48,.7,.77,.97,.32,.29,.67,.54,1.04,.75,.53,.3,1.11,.52,1.72,.63,.43,.08,1.23,.22,1.61-.1,.11-.1,.14-.26,.18-.4,.18-.71,.29-1.46,.18-2.18-.07-.42-.22-.83-.45-1.18-.12-.18-.26-.34-.43-.48s-.36-.23-.43-.44c-.08-.25,.11-.5,.2-.75,.1-.27,.08-.56,0-.84Z"/><path class="cls-1" d="M25.87,26.46c1.19-.1,1.35-.51,1.6-1.07"/></g></g></g></svg>