<?xml version="1.0" encoding="UTF-8"?><svg id="Livello_2" xmlns="http://www.w3.org/2000/svg" viewBox="0 0 47.38 47.38"><defs><style>.cls-1{fill:#fbc45d;}.cls-1,.cls-2{stroke:#1e1e1c;}.cls-1,.cls-2,.cls-3{stroke-miterlimit:10;stroke-width:.5px;}.cls-2{fill:#389fa9;}.cls-3{fill:#343434;stroke:#1d1d1b;}</style></defs><g id="Livello_5"><g><rect class="cls-3" x=".25" y=".25" width="46.88" height="46.88" rx="10.24" ry="10.24"/><g><path class="cls-1" d="M6.44,28.78c2.56,1.82,5.18,2.94,9.07,.39,1.06,5.5,4.62,6.78,5.48,7.21,.18,.09-8.04,2.25-8.95,2.27-.81,.02-2.82,.23-4.01-.11,0,0-1.9-.38-2.07-1.74-.17-1.36,0-5.57,.47-8.02Z"/><path class="cls-2" d="M9.22,19.61c-1.63,3.19-2.54,7.7-2.79,9.17,2.83,2.08,5.46,2.85,9.07,.39-.32-2.24,.36-5.19,.92-6.35,.09,.04-4.67,.51-7.2-3.21Z"/><path class="cls-1" d="M15.9,11.94c-4.87,3.01-6.67,7.67-6.67,7.67,1.95,2.97,6,3.42,7.2,3.21,0,0,.95-2.94,4.21-5.56-2.03-.43-4.19-.86-4.74-5.33Z"/><path class="cls-2" d="M25.14,8.76c-2.05,.07-6.39,1.28-9.24,3.18,.53,5.39,4.74,5.33,4.74,5.33,0,0,2.92-1.77,5.27-1.78,.08,0-.18-.15-.23-.22-.51-.8-2.64-4.29-.55-6.51Z"/><path class="cls-1" d="M36.13,12.01c-3.5-2.74-7.21-3.7-10.99-3.25-2.3,2.61,.69,6.72,.69,6.72,0,0,2.74-.35,5.36,1.54,0,0,.29-4.75,4.93-5.01Z"/><path class="cls-2" d="M41.19,20.49c-.74-4.31-3.86-7.59-5.06-8.48-3.7,.22-5.06,3.74-4.93,5.01,1.08,.93,2.93,2.49,3.38,5.35,1.94-3.55,5.74-2.41,6.61-1.89Z"/><path class="cls-1" d="M39.58,30.22c.22-.4,2.74-4.7,1.6-9.73-1.07-.74-5-1.35-6.61,1.89,.47,2.1-.56,4.1-.56,4.1,1.37-.38,5.03,.25,5.56,3.74Z"/><path class="cls-2" d="M31.69,36.69c2.41-.55,6.44-3.62,7.89-6.47-.13-2.05-2.52-4.34-5.56-3.74-.65,1.77-3.08,3.41-3.08,3.41,2.81,1.33,1.84,5.81,.75,6.8Z"/><path class="cls-1" d="M26.16,30.53c1.26,2.64-1.43,5.94-3.75,6.31,0,0,0,0,0,0,1.91,.43,5.96,.86,9.27-.15,.51-.15,2.6-4.98-.75-6.8,0,0,0,0,0,0-1.91,1.1-3.63,.89-4.77,.64,0,0,0,0,0,0Z"/><path class="cls-2" d="M23.14,28.44c-.94,2.67-4.78,3.39-7.28,2.2,.85,3.3,3.83,5.59,6.55,6.19,2.95-.63,4.87-4.41,3.74-6.31-1.51-.42-2.29-1.07-3.02-2.09Z"/><path class="cls-1" d="M23.14,28.44c-.23-.44-1.03-2.35,.16-4.24,.06-.1-.3,.39-.33,.4-2.09,.96-4.58-.92-5.81-3.34-1.1,1.34-2.46,6.08-1.32,9.27,.67,.85,6.17,1.41,7.3-2.1Z"/><path class="cls-2" d="M25.92,23c-.57-.23-2.1,.03-2.72,1.39-.05,.1-.12,.19-.23,.22-1.59,.52-3.85,.06-5.81-3.34,1.75-3.5,5.98-6.18,9.93-5.79-3.31,3.21-2.12,6.56-1.17,7.51Z"/><path class="cls-1" d="M34.68,23.96c-3.13-2.43-6.62-1.01-7.31,.49-.28-.52-.56-1.13-1.45-1.45-2.06-2.35-.68-5.98,1.17-7.51,4.1,.22,7.99,4.41,7.59,8.47Z"/><path class="cls-2" d="M26.97,25.95s.64-.44,.41-1.5c1.51-2.35,5.29-2.24,7.31-.49-.17,3.6-3.63,6.69-6.63,6.77,1.49-3.69-1.09-4.78-1.09-4.78Z"/><path class="cls-1" d="M27.39,24.44c-.18-.57-.68-1.1-1.16-1.32-.79-.36-1.68-.11-2.33,.42-.28,.23-.52,.51-.7,.82-.34,.6-.47,1.37-.51,2.06s.22,1.32,.43,1.95c.12,.37,.46,.68,.75,.94,.31,.28,.65,.53,1.01,.73,.52,.29,1.08,.51,1.67,.61,.42,.07,1.2,.21,1.57-.1,.11-.09,.14-.25,.17-.39,.17-.69,.29-1.42,.18-2.12-.06-.41-.21-.81-.44-1.15-.12-.17-.26-.33-.42-.47s-.35-.22-.41-.43c-.07-.25,.11-.49,.2-.73,.09-.26,.08-.55,0-.82Z"/><path class="cls-1" d="M25.81,26.38c1.16-.09,1.31-.5,1.56-1.05"/></g></g></g></svg>