<svg width="12" height="12" viewBox="0 0 12 12" fill="none" xmlns="http://www.w3.org/2000/svg">
<path d="M0 0H8C10.2091 0 12 1.79086 12 4V12H4C1.79086 12 0 10.2091 0 8V0Z" fill="#7CB0B7"/>
<path d="M7.80078 8.32422V9H4.01562C4.01042 8.83073 4.03776 8.66797 4.09766 8.51172C4.19401 8.25391 4.34766 8 4.55859 7.75C4.77214 7.5 5.07943 7.21094 5.48047 6.88281C6.10286 6.3724 6.52344 5.96875 6.74219 5.67188C6.96094 5.3724 7.07031 5.08984 7.07031 4.82422C7.07031 4.54557 6.97005 4.3112 6.76953 4.12109C6.57161 3.92839 6.3125 3.83203 5.99219 3.83203C5.65365 3.83203 5.38281 3.93359 5.17969 4.13672C4.97656 4.33984 4.8737 4.62109 4.87109 4.98047L4.14844 4.90625C4.19792 4.36719 4.38411 3.95703 4.70703 3.67578C5.02995 3.39193 5.46354 3.25 6.00781 3.25C6.55729 3.25 6.99219 3.40234 7.3125 3.70703C7.63281 4.01172 7.79297 4.38932 7.79297 4.83984C7.79297 5.06901 7.74609 5.29427 7.65234 5.51562C7.55859 5.73698 7.40234 5.97005 7.18359 6.21484C6.96745 6.45964 6.60677 6.79557 6.10156 7.22266C5.67969 7.57682 5.40885 7.81771 5.28906 7.94531C5.16927 8.07031 5.07031 8.19661 4.99219 8.32422H7.80078Z" fill="black"/>
</svg>
