<svg width="12" height="12" viewBox="0 0 12 12" fill="none" xmlns="http://www.w3.org/2000/svg">
<path d="M0 0H8C10.2091 0 12 1.79086 12 4V12H4C1.79086 12 0 10.2091 0 8V0Z" fill="#7CB0B7"/>
<path d="M4.10938 7.48828L4.8125 7.39453C4.89323 7.79297 5.02995 8.08073 5.22266 8.25781C5.41797 8.43229 5.65495 8.51953 5.93359 8.51953C6.26432 8.51953 6.54297 8.40495 6.76953 8.17578C6.9987 7.94661 7.11328 7.66276 7.11328 7.32422C7.11328 7.0013 7.00781 6.73568 6.79688 6.52734C6.58594 6.31641 6.31771 6.21094 5.99219 6.21094C5.85938 6.21094 5.69401 6.23698 5.49609 6.28906L5.57422 5.67188C5.62109 5.67708 5.65885 5.67969 5.6875 5.67969C5.98698 5.67969 6.25651 5.60156 6.49609 5.44531C6.73568 5.28906 6.85547 5.04818 6.85547 4.72266C6.85547 4.46484 6.76823 4.2513 6.59375 4.08203C6.41927 3.91276 6.19401 3.82812 5.91797 3.82812C5.64453 3.82812 5.41667 3.91406 5.23438 4.08594C5.05208 4.25781 4.9349 4.51562 4.88281 4.85938L4.17969 4.73438C4.26562 4.26302 4.46094 3.89844 4.76562 3.64062C5.07031 3.38021 5.44922 3.25 5.90234 3.25C6.21484 3.25 6.5026 3.31771 6.76562 3.45312C7.02865 3.58594 7.22917 3.76823 7.36719 4C7.50781 4.23177 7.57812 4.47786 7.57812 4.73828C7.57812 4.98568 7.51172 5.21094 7.37891 5.41406C7.24609 5.61719 7.04948 5.77865 6.78906 5.89844C7.1276 5.97656 7.39062 6.13932 7.57812 6.38672C7.76562 6.63151 7.85938 6.9388 7.85938 7.30859C7.85938 7.80859 7.67708 8.23307 7.3125 8.58203C6.94792 8.92839 6.48698 9.10156 5.92969 9.10156C5.42708 9.10156 5.00911 8.95182 4.67578 8.65234C4.34505 8.35286 4.15625 7.96484 4.10938 7.48828Z" fill="black"/>
</svg>
