<svg width="12" height="12" viewBox="0 0 12 12" fill="none" xmlns="http://www.w3.org/2000/svg">
<path d="M0 0H8C10.2091 0 12 1.79086 12 4V12H4C1.79086 12 0 10.2091 0 8V0Z" fill="#7CB0B7"/>
<path d="M4.10547 7.5L4.84375 7.4375C4.89844 7.79688 5.02474 8.06771 5.22266 8.25C5.42318 8.42969 5.66406 8.51953 5.94531 8.51953C6.28385 8.51953 6.57031 8.39193 6.80469 8.13672C7.03906 7.88151 7.15625 7.54297 7.15625 7.12109C7.15625 6.72005 7.04297 6.40365 6.81641 6.17188C6.59245 5.9401 6.29818 5.82422 5.93359 5.82422C5.70703 5.82422 5.5026 5.8763 5.32031 5.98047C5.13802 6.08203 4.99479 6.21484 4.89062 6.37891L4.23047 6.29297L4.78516 3.35156H7.63281V4.02344H5.34766L5.03906 5.5625C5.38281 5.32292 5.74349 5.20312 6.12109 5.20312C6.62109 5.20312 7.04297 5.3763 7.38672 5.72266C7.73047 6.06901 7.90234 6.51432 7.90234 7.05859C7.90234 7.57682 7.7513 8.02474 7.44922 8.40234C7.08203 8.86589 6.58073 9.09766 5.94531 9.09766C5.42448 9.09766 4.9987 8.95182 4.66797 8.66016C4.33984 8.36849 4.15234 7.98177 4.10547 7.5Z" fill="black"/>
</svg>
