<svg width="12" height="12" viewBox="0 0 12 12" fill="none" xmlns="http://www.w3.org/2000/svg">
<path d="M0 0H8C10.2091 0 12 1.79086 12 4V12H4C1.79086 12 0 10.2091 0 8V0Z" fill="#7CB0B7"/>
<path d="M7.75391 4.67578L7.05469 4.73047C6.99219 4.45443 6.90365 4.25391 6.78906 4.12891C6.59896 3.92839 6.36458 3.82812 6.08594 3.82812C5.86198 3.82812 5.66536 3.89062 5.49609 4.01562C5.27474 4.17708 5.10026 4.41276 4.97266 4.72266C4.84505 5.03255 4.77865 5.47396 4.77344 6.04688C4.94271 5.78906 5.14974 5.59766 5.39453 5.47266C5.63932 5.34766 5.89583 5.28516 6.16406 5.28516C6.63281 5.28516 7.03125 5.45833 7.35938 5.80469C7.6901 6.14844 7.85547 6.59375 7.85547 7.14062C7.85547 7.5 7.77734 7.83464 7.62109 8.14453C7.46745 8.45182 7.25521 8.6875 6.98438 8.85156C6.71354 9.01562 6.40625 9.09766 6.0625 9.09766C5.47656 9.09766 4.9987 8.88281 4.62891 8.45312C4.25911 8.02083 4.07422 7.3099 4.07422 6.32031C4.07422 5.21354 4.27865 4.40885 4.6875 3.90625C5.04427 3.46875 5.52474 3.25 6.12891 3.25C6.57943 3.25 6.94792 3.3763 7.23438 3.62891C7.52344 3.88151 7.69661 4.23047 7.75391 4.67578ZM4.88281 7.14453C4.88281 7.38672 4.93359 7.61849 5.03516 7.83984C5.13932 8.0612 5.28385 8.23047 5.46875 8.34766C5.65365 8.46224 5.84766 8.51953 6.05078 8.51953C6.34766 8.51953 6.60286 8.39974 6.81641 8.16016C7.02995 7.92057 7.13672 7.59505 7.13672 7.18359C7.13672 6.78776 7.03125 6.47656 6.82031 6.25C6.60938 6.02083 6.34375 5.90625 6.02344 5.90625C5.70573 5.90625 5.4362 6.02083 5.21484 6.25C4.99349 6.47656 4.88281 6.77474 4.88281 7.14453Z" fill="black"/>
</svg>
