<svg width="12" height="12" viewBox="0 0 12 12" fill="none" xmlns="http://www.w3.org/2000/svg">
<path d="M0 0H8C10.2091 0 12 1.79086 12 4V12H4C1.79086 12 0 10.2091 0 8V0Z" fill="#7CB0B7"/>
<path d="M5.1875 5.89453C4.89583 5.78776 4.67969 5.63542 4.53906 5.4375C4.39844 5.23958 4.32812 5.0026 4.32812 4.72656C4.32812 4.3099 4.47786 3.95964 4.77734 3.67578C5.07682 3.39193 5.47526 3.25 5.97266 3.25C6.47266 3.25 6.875 3.39583 7.17969 3.6875C7.48438 3.97656 7.63672 4.32943 7.63672 4.74609C7.63672 5.01172 7.56641 5.24349 7.42578 5.44141C7.28776 5.63672 7.07682 5.78776 6.79297 5.89453C7.14453 6.00911 7.41146 6.19401 7.59375 6.44922C7.77865 6.70443 7.87109 7.00911 7.87109 7.36328C7.87109 7.85286 7.69792 8.26432 7.35156 8.59766C7.00521 8.93099 6.54948 9.09766 5.98438 9.09766C5.41927 9.09766 4.96354 8.93099 4.61719 8.59766C4.27083 8.26172 4.09766 7.84375 4.09766 7.34375C4.09766 6.97135 4.19141 6.66016 4.37891 6.41016C4.56901 6.15755 4.83854 5.98568 5.1875 5.89453ZM5.04688 4.70312C5.04688 4.97396 5.13411 5.19531 5.30859 5.36719C5.48307 5.53906 5.70964 5.625 5.98828 5.625C6.25911 5.625 6.48047 5.54036 6.65234 5.37109C6.82682 5.19922 6.91406 4.98958 6.91406 4.74219C6.91406 4.48438 6.82422 4.26823 6.64453 4.09375C6.46745 3.91667 6.24609 3.82812 5.98047 3.82812C5.71224 3.82812 5.48958 3.91406 5.3125 4.08594C5.13542 4.25781 5.04688 4.46354 5.04688 4.70312ZM4.82031 7.34766C4.82031 7.54818 4.86719 7.74219 4.96094 7.92969C5.05729 8.11719 5.19922 8.26302 5.38672 8.36719C5.57422 8.46875 5.77604 8.51953 5.99219 8.51953C6.32812 8.51953 6.60547 8.41146 6.82422 8.19531C7.04297 7.97917 7.15234 7.70443 7.15234 7.37109C7.15234 7.03255 7.03906 6.7526 6.8125 6.53125C6.58854 6.3099 6.30729 6.19922 5.96875 6.19922C5.63802 6.19922 5.36328 6.30859 5.14453 6.52734C4.92839 6.74609 4.82031 7.01953 4.82031 7.34766Z" fill="black"/>
</svg>
