<?xml version="1.0" encoding="UTF-8"?><svg id="Livello_2" xmlns="http://www.w3.org/2000/svg" xmlns:xlink="http://www.w3.org/1999/xlink" viewBox="0 0 85.62 81.63"><defs><style>.cls-1{fill:#ffe4b2;}.cls-1,.cls-2{stroke:#343434;stroke-miterlimit:10;}.cls-2{fill:url(#Sfumatura_senza_nome_3);}</style><linearGradient id="Sfumatura_senza_nome_3" x1="30.65" y1="31.07" x2="52.67" y2="58.17" gradientUnits="userSpaceOnUse"><stop offset=".25" stop-color="#efd9cb"/><stop offset="1" stop-color="#89cdd4"/></linearGradient></defs><g id="Livello_6"><g><path class="cls-2" d="M44.27,1.56l8.94,27.51c.2,.63,.79,1.06,1.45,1.06h28.93c1.48,0,2.1,1.9,.9,2.77l-23.4,17c-.54,.39-.76,1.08-.56,1.71l8.94,27.51c.46,1.41-1.16,2.58-2.35,1.71l-23.4-17c-.54-.39-1.26-.39-1.8,0l-23.4,17c-1.2,.87-2.81-.3-2.35-1.71l8.94-27.51c.2-.63-.02-1.32-.56-1.71L1.13,32.89c-1.2-.87-.58-2.77,.9-2.77H30.96c.66,0,1.25-.43,1.45-1.06L41.36,1.56c.46-1.41,2.45-1.41,2.91,0Z"/><line class="cls-1" x1="42.81" y1=".5" x2="42.81" y2="44.75"/><line class="cls-1" x1="85.12" y1="31.15" x2="42.81" y2="44.75"/><line class="cls-1" x1="68.92" y1="80.83" x2="42.81" y2="44.75"/><line class="cls-1" x1="16.7" y1="80.83" x2="42.81" y2="44.75"/><line class="cls-1" x1=".58" y1="31.18" x2="42.81" y2="44.75"/></g></g></svg>