<?xml version="1.0" encoding="UTF-8"?><svg id="Livello_2" xmlns="http://www.w3.org/2000/svg" xmlns:xlink="http://www.w3.org/1999/xlink" viewBox="0 0 56.24 66.12"><defs><style>.cls-1{fill:url(#Nuovo_campione_sfumatura_2-9);}.cls-1,.cls-2,.cls-3,.cls-4,.cls-5,.cls-6,.cls-7,.cls-8,.cls-9,.cls-10,.cls-11{stroke:#343434;stroke-miterlimit:10;}.cls-2{fill:url(#Nuovo_campione_sfumatura_2-8);}.cls-3{fill:url(#Nuovo_campione_sfumatura_2-7);}.cls-4{fill:url(#Nuovo_campione_sfumatura_2-6);}.cls-5{fill:url(#Nuovo_campione_sfumatura_2-5);}.cls-6{fill:url(#Nuovo_campione_sfumatura_2-2);}.cls-7{fill:url(#Nuovo_campione_sfumatura_2-3);}.cls-8{fill:url(#Nuovo_campione_sfumatura_2-4);}.cls-9{fill:url(#Sfumatura_senza_nome_8);}.cls-10{fill:url(#Nuovo_campione_sfumatura_2-10);}.cls-11{fill:url(#Nuovo_campione_sfumatura_2);}</style><linearGradient id="Sfumatura_senza_nome_8" x1="12.14" y1="16.05" x2="35.85" y2="42.59" gradientUnits="userSpaceOnUse"><stop offset="0" stop-color="#efd9cb"/><stop offset="1" stop-color="#89cdd4"/></linearGradient><linearGradient id="Nuovo_campione_sfumatura_2" x1="-.17" y1="27.05" x2="23.55" y2="53.59" gradientUnits="userSpaceOnUse"><stop offset="0" stop-color="#efd9cb"/><stop offset="1" stop-color="#89cdd4"/></linearGradient><linearGradient id="Nuovo_campione_sfumatura_2-2" x1="4.7" y1="22.69" x2="28.42" y2="49.23" xlink:href="#Nuovo_campione_sfumatura_2"/><linearGradient id="Nuovo_campione_sfumatura_2-3" x1="11.89" y1="16.27" x2="35.61" y2="42.81" xlink:href="#Nuovo_campione_sfumatura_2"/><linearGradient id="Nuovo_campione_sfumatura_2-4" x1="18.08" y1="10.74" x2="41.8" y2="37.28" xlink:href="#Nuovo_campione_sfumatura_2"/><linearGradient id="Nuovo_campione_sfumatura_2-5" x1="12.96" y1="15.31" x2="36.68" y2="41.85" xlink:href="#Nuovo_campione_sfumatura_2"/><linearGradient id="Nuovo_campione_sfumatura_2-6" x1="-3.93" y1="30.41" x2="19.78" y2="56.95" xlink:href="#Nuovo_campione_sfumatura_2"/><linearGradient id="Nuovo_campione_sfumatura_2-7" x1="-2.11" y1="28.78" x2="21.61" y2="55.33" xlink:href="#Nuovo_campione_sfumatura_2"/><linearGradient id="Nuovo_campione_sfumatura_2-8" x1="2.45" y1="24.71" x2="26.16" y2="51.25" xlink:href="#Nuovo_campione_sfumatura_2"/><linearGradient id="Nuovo_campione_sfumatura_2-9" x1="5.55" y1="21.94" x2="29.26" y2="48.48" xlink:href="#Nuovo_campione_sfumatura_2"/><linearGradient id="Nuovo_campione_sfumatura_2-10" x1="17.12" y1="11.6" x2="40.84" y2="38.14" xlink:href="#Nuovo_campione_sfumatura_2"/></defs><g id="Livello_6"><g><path class="cls-9" d="M27.12,52.74c-10.05-2.19-22.08-4.58-22.31-15.25-.04-1.84-9.45-7.47-.35-20.19,.49-.69-.35-11.22,13.98-12.49,1.73-.15,8.18-9.71,18.92,.14,.85,.78,13.03-1.61,14.12,11.93,.14,1.76,9.39,7.53,.21,20.82-.36,.52,.4,5.89-3.11,8.89-4.67,3.99-19.48,6.14-20.05,6.14-1.49,0,19.7,2.19,19.98,5.08,.1,1.03-1.94,1.48-3.25,3.04-3.46,4.09-7.41,2.36-9.11,2.96-12.1,4.35-13.98-.61-16.02-.21-5.18,1-7.13-.4-8.25-2.54-.24-.45-.97-.31-1.49-.29-.75,.03-2.03-.35-2.97-2.89-.92-2.49,20.76-4.92,19.69-5.15Z"/><path class="cls-11" d="M4.82,37.49c4.94,5.29,13.76,10.38,22.31,15.25"/><path class="cls-6" d="M27.69,52.74C14.7,40.59,4.78,26.55,4.46,17.3"/><path class="cls-7" d="M27.69,52.74C17.73,34.52,14.7,9.04,18.44,4.81"/><path class="cls-8" d="M51.48,16.88c-1.41,13.98-14.26,28.26-23.79,35.86"/><path class="cls-5" d="M51.69,37.7c-6.78,6.55-16.02,11.65-24,15.04"/><path class="cls-4" d="M11.54,60.79c2.31-1.87,9.79-5.16,16.14-8.06"/><path class="cls-3" d="M27.69,52.74c-3.04,4.02-4.92,6.78-7.08,10.87"/><path class="cls-2" d="M27.69,52.74c8.33,8.47,8.53,10.47,9.21,10.95"/><path class="cls-1" d="M28.12,52.74c11.1,4.06,15.42,7.4,17.14,8.12"/><path class="cls-10" d="M37.36,4.95c5.22,4.73-1.34,36.99-9.67,47.79"/></g></g></svg>