<?xml version="1.0" encoding="UTF-8"?><svg id="Livello_2" xmlns="http://www.w3.org/2000/svg" xmlns:xlink="http://www.w3.org/1999/xlink" viewBox="0 0 64.45 65.96"><defs><style>.cls-1{fill:url(#Nuovo_campione_sfumatura_2);}.cls-2{fill:url(#Nuovo_campione_sfumatura_2-7);}.cls-2,.cls-3,.cls-4,.cls-5,.cls-6,.cls-7,.cls-8{stroke:#343434;stroke-miterlimit:10;}.cls-3{fill:url(#Nuovo_campione_sfumatura_2-6);}.cls-4{fill:url(#Nuovo_campione_sfumatura_2-5);}.cls-5{fill:url(#Nuovo_campione_sfumatura_2-2);}.cls-6{fill:url(#Nuovo_campione_sfumatura_2-3);}.cls-7{fill:url(#Nuovo_campione_sfumatura_2-4);}.cls-8{fill:none;}</style><linearGradient id="Nuovo_campione_sfumatura_2" x1="32.04" y1="14.73" x2="56.1" y2="14.73" gradientTransform="translate(13.27 -20.06) rotate(30)" gradientUnits="userSpaceOnUse"><stop offset="0" stop-color="#efd9cb"/><stop offset="1" stop-color="#89cdd4"/></linearGradient><linearGradient id="Nuovo_campione_sfumatura_2-2" x1=".5" y1="61" x2="9.63" y2="61" gradientTransform="matrix(1, 0, 0, 1, 0, 0)" xlink:href="#Nuovo_campione_sfumatura_2"/><linearGradient id="Nuovo_campione_sfumatura_2-3" x1="3.19" y1="56.7" x2="14.44" y2="56.7" gradientTransform="matrix(1, 0, 0, 1, 0, 0)" xlink:href="#Nuovo_campione_sfumatura_2"/><linearGradient id="Nuovo_campione_sfumatura_2-4" x1="5.7" y1="51.62" x2="21.2" y2="51.62" gradientTransform="matrix(1, 0, 0, 1, 0, 0)" xlink:href="#Nuovo_campione_sfumatura_2"/><linearGradient id="Nuovo_campione_sfumatura_2-5" x1="9.95" y1="45.14" x2="28.84" y2="45.14" gradientTransform="matrix(1, 0, 0, 1, 0, 0)" xlink:href="#Nuovo_campione_sfumatura_2"/><linearGradient id="Nuovo_campione_sfumatura_2-6" x1="14.94" y1="36.8" x2="37.49" y2="36.8" gradientTransform="matrix(1, 0, 0, 1, 0, 0)" xlink:href="#Nuovo_campione_sfumatura_2"/><linearGradient id="Nuovo_campione_sfumatura_2-7" x1="19.87" y1="21.35" x2="63.95" y2="21.35" gradientTransform="matrix(1, 0, 0, 1, 0, 0)" xlink:href="#Nuovo_campione_sfumatura_2"/></defs><g id="Livello_6"><g><ellipse class="cls-1" cx="44.07" cy="14.73" rx="12.9" ry="8.9" transform="translate(-1.46 24.01) rotate(-30)"/><g><path class="cls-5" d="M3.22,56.54c-6.96,3.67,.99,14.21,6.41,5.67"/><path class="cls-6" d="M5.71,51.17c-7,5.36,2.14,16.38,8.74,8.05"/><path class="cls-7" d="M9.95,43.92c-11.39,7.53,2.78,24,11.25,9.82"/><path class="cls-4" d="M14.9,36.21c-12.05,4.89,0,28.8,13.94,11.9"/><path class="cls-3" d="M20.36,25.29c-14.31,9.04,2.64,34.64,17.13,16.94"/><path class="cls-2" d="M31.46,17.01C36.17-2.19,52.87,1.47,61.55,.51c1.55-.17,2.66,2.15,2.34,2.97-3.92,9.99-2.79,13.65-4.57,20.3-8.89,33.34-46.03,15.65-38.43-7.7,.18-.57,.84-.84,1.37-.55,3.27,1.76,14.83,5.36,30.2-8.39,4.34-3.88,8.45-6.56,10.11-6.38"/><path class="cls-8" d="M26.21,16.99c-3.03,9.18,2.62,16.49,7.7,18.37"/></g></g></g></svg>