<?xml version="1.0" encoding="UTF-8"?><svg id="Livello_2" xmlns="http://www.w3.org/2000/svg" xmlns:xlink="http://www.w3.org/1999/xlink" viewBox="0 0 81.84 74.54"><defs><style>.cls-1{fill:url(#Nuovo_campione_sfumatura_2-2);}.cls-1,.cls-2,.cls-3,.cls-4,.cls-5{stroke-miterlimit:10;}.cls-1,.cls-2,.cls-4{stroke:#343434;}.cls-6,.cls-3,.cls-4{fill:#343434;}.cls-2{fill:#ffe4b2;}.cls-3,.cls-5{stroke:#010101;}.cls-5{fill:url(#Nuovo_campione_sfumatura_2);}</style><linearGradient id="Nuovo_campione_sfumatura_2" x1="43.64" y1="6.18" x2="81.47" y2="39.5" gradientUnits="userSpaceOnUse"><stop offset="0" stop-color="#efd9cb"/><stop offset="1" stop-color="#89cdd4"/></linearGradient><linearGradient id="Nuovo_campione_sfumatura_2-2" x1="19.23" y1="56.76" x2="59.32" y2="79.35" xlink:href="#Nuovo_campione_sfumatura_2"/></defs><g id="Livello_6"><g><g><rect class="cls-3" x="47.09" y="16.87" width="3.01" height="58.03" transform="translate(19.29 -14.18) rotate(20.63)"/><path class="cls-5" d="M79.23,38.17c5.62-14.92-.7-31.1-14.11-36.15-13.41-5.05-28.83,2.95-34.45,17.87,3.08-2.44,4.41-2.68,4.99-2.22,1.02,.81-.21,3.9,.67,4.35,.99,.51,3.25-2.97,4.2-2.46,.88,.47-.32,3.82,.52,4.24,.9,.45,3.07-3.01,3.93-2.56,.81,.42-.4,3.79,.38,4.19,.84,.42,2.87-3.06,3.91-2.63,1.01,.42,.02,4.09,.98,4.47,.98,.38,2.85-3.08,3.73-2.7,.85,.37-.25,3.94,.63,4.34,.91,.41,2.87-3.06,3.86-2.65,.97,.4-.06,4.01,.94,4.45,1.04,.46,2.97-3.04,4.15-2.6,1.18,.44,.35,4.37,1.4,4.68,1.01,.3,2.54-3.04,3.49-2.73,.98,.32,.13,4.1,1.18,4.49,1.04,.38,2.84-3.02,3.76-2.63,.91,.38-.08,4.03,.74,4.32,.79,.29,2.14-2.98,3.38-2.83,.73,.09,1.37,1.36,1.73,4.75Z"/></g><g><polygon class="cls-1" points="79.98 72.74 17.57 74.03 1.85 65.21 64.11 63.92 79.98 72.74"/><line class="cls-2" x1="9.76" y1="65.05" x2="26.1" y2="73.86"/><line class="cls-2" x1="56.35" y1="64.08" x2="72.08" y2="72.9"/><polygon class="cls-4" points="38.44 73.6 34.65 73.68 19.08 64.86 22.72 64.78 38.44 73.6"/><polygon class="cls-4" points="50.6 73.35 46.81 73.43 30.57 64.62 35.04 64.52 50.6 73.35"/><polygon class="cls-4" points="62.77 73.1 58.98 73.17 43.03 64.36 47.19 64.27 62.77 73.1"/></g><g><path class="cls-6" d="M25.79,45.41c-.95,0-1.68,.68-1.82,1.64h3.45c-.06-1-.67-1.64-1.63-1.64Z"/><path class="cls-6" d="M33.26,48.87c0,.52,.41,.84,1.09,.84,1.03,0,1.78-.65,1.78-1.56v-.44h-.32c-1.68,.07-2.54,.38-2.54,1.16Z"/><path class="cls-6" d="M20.75,45.05c0-.9-.58-1.37-1.72-1.37h-1.59v2.73h1.63c1.14,0,1.68-.53,1.68-1.37Z"/><path class="cls-6" d="M53.97,40.26H5.27c-1.19,0-2.15,.96-2.15,2.15v8.85c0,1.19,.96,2.15,2.15,2.15H53.97c1.19,0,2.15-.96,2.15-2.15v-8.85c0-1.19-.96-2.15-2.15-2.15Zm-32.03,9.71c.06,.07-.2,.5-.72,.5-.32,0-.54-.13-.8-.48l-2.12-2.6h-.85v2.52c0,.34-.18,.56-.54,.56h-.17c-.34,0-.52-.23-.52-.64v-6.48c0-.42,.26-.7,.66-.7h2.21c1.9,0,2.9,.79,2.9,2.33,0,1.16-.64,1.96-1.82,2.21-.16,.04-.32,.06-.49,.07l2.27,2.7Zm6.62-2.46c0,.25-.08,.35-.36,.35h-4.26c0,.07,.01,.14,.02,.22,.17,.95,.92,1.57,1.94,1.57s1.51-.44,1.81-.96c.02-.02,.62,.08,.62,.59,0,.25-.22,.58-.64,.84-.42,.26-1.03,.47-1.82,.47-1.82,0-3.05-1.21-3.05-3.01s1.25-3.06,2.95-3.06,2.77,1.18,2.77,2.9v.1Zm2.34,2.4c0,.43-.22,.56-.53,.56h-.12c-.31,0-.54-.13-.54-.56v-7.59s.2-.13,.43-.13c.37,0,.76,.19,.76,1.02v6.7Zm6.39,.44c0,.06-.22,.13-.43,.13-.32,0-.59-.14-.68-.53-.02-.11-.05-.24-.05-.4-.44,.62-1.2,1-2.07,1-1.24,0-1.97-.66-1.97-1.64,0-1.33,1.27-1.91,3.87-1.96h.16v-.12c0-.88-.5-1.36-1.43-1.36-.88,0-1.39,.46-1.66,.98,0,.01-.73,0-.73-.58,0-.22,.13-.48,.4-.72,.4-.36,1.09-.66,2.08-.66,1.63,0,2.52,.84,2.52,2.3v3.54Zm6.24-.31c.04,.06-.2,.44-.65,.44-.32,0-.54-.18-.73-.49l-1.28-1.82-1.25,1.81c-.2,.32-.44,.5-.74,.5-.42,0-.7-.4-.65-.44l1.91-2.49-1.88-2.52c-.04-.06,.22-.43,.64-.43,.32,0,.54,.17,.74,.49l1.28,1.83,1.26-1.83c.23-.36,.49-.49,.73-.49,.43,0,.7,.38,.66,.43l-1.91,2.52,1.87,2.49Z"/></g></g></g></svg>