<?xml version="1.0" encoding="UTF-8"?><svg id="Livello_2" xmlns="http://www.w3.org/2000/svg" viewBox="0 0 330.84 54.63"><defs><style>.cls-1{fill:#fcc65d;}.cls-1,.cls-2,.cls-3,.cls-4{stroke-miterlimit:10;}.cls-1,.cls-3{stroke:#1d1d1b;}.cls-2{fill:#fbc45d;}.cls-2,.cls-4{stroke:#1e1e1c;}.cls-3{fill:#3aa0aa;}.cls-4{fill:#389fa9;}</style></defs><g id="Livello_5"><g><g><path class="cls-2" d="M281.25,40.18c3.59,2.55,7.25,4.13,12.7,.55,1.49,7.7,6.48,9.5,7.68,10.1,.25,.12-11.27,3.16-12.54,3.18-1.14,.02-3.95,.32-5.62-.15,0,0-2.66-.54-2.89-2.44-.23-1.91,0-7.81,.66-11.23Z"/><path class="cls-4" d="M285.15,27.34c-2.29,4.47-3.56,10.79-3.9,12.85,3.96,2.92,7.65,3.99,12.7,.55-.45-3.14,.5-7.28,1.29-8.89,.12,.06-6.54,.71-10.09-4.5Z"/><path class="cls-2" d="M294.5,16.59c-6.83,4.22-9.35,10.75-9.35,10.75,2.74,4.16,8.41,4.8,10.09,4.5,0,0,1.33-4.11,5.9-7.79-2.84-.61-5.87-1.2-6.65-7.46Z"/><path class="cls-4" d="M307.46,12.13c-2.87,.1-8.95,1.79-12.95,4.46,.74,7.56,6.65,7.46,6.65,7.46,0,0,4.09-2.47,7.39-2.49,.11,0-.26-.22-.32-.31-.72-1.13-3.7-6.01-.77-9.11Z"/><path class="cls-2" d="M322.85,16.69c-4.9-3.84-10.1-5.18-15.39-4.56-3.22,3.66,.97,9.42,.97,9.42,0,0,3.84-.49,7.51,2.16,0,0,.4-6.65,6.91-7.02Z"/><path class="cls-4" d="M329.93,28.57c-1.04-6.04-5.4-10.64-7.08-11.88-5.19,.3-7.09,5.25-6.91,7.02,1.51,1.3,4.11,3.48,4.73,7.5,2.71-4.98,8.04-3.38,9.26-2.64Z"/><path class="cls-2" d="M327.69,42.21c.31-.56,3.84-6.58,2.24-13.64-1.5-1.04-7-1.9-9.26,2.64,.65,2.94-.78,5.75-.78,5.75,1.91-.53,7.05,.35,7.79,5.24Z"/><path class="cls-4" d="M316.63,51.26c3.38-.77,9.02-5.07,11.06-9.06-.18-2.87-3.53-6.08-7.79-5.24-.92,2.48-4.32,4.78-4.32,4.78,3.93,1.87,2.58,8.14,1.06,9.52Z"/><path class="cls-2" d="M308.89,42.64c1.77,3.7-2,8.32-5.25,8.84,0,0,0,0,0,0,2.68,.6,8.36,1.21,12.99-.21,.72-.2,3.64-6.98-1.06-9.52,0,0,0,0,0,0-2.67,1.54-5.09,1.25-6.69,.9,0,0,0,0,0,0Z"/><path class="cls-4" d="M304.65,39.72c-1.32,3.74-6.69,4.75-10.19,3.08,1.2,4.63,5.36,7.83,9.18,8.68,4.13-.88,6.83-6.18,5.25-8.84-2.11-.59-3.21-1.51-4.23-2.92Z"/><path class="cls-2" d="M304.65,39.72c-.33-.62-1.44-3.29,.22-5.94,.09-.14-.42,.55-.46,.57-2.92,1.35-6.42-1.29-8.14-4.67-1.54,1.87-3.45,8.52-1.85,12.99,.94,1.19,8.64,1.98,10.23-2.94Z"/><path class="cls-4" d="M308.55,32.09c-.8-.33-2.94,.04-3.81,1.94-.07,.14-.17,.26-.32,.31-2.23,.72-5.39,.08-8.14-4.67,2.45-4.91,8.38-8.66,13.92-8.11-4.64,4.49-2.97,9.19-1.65,10.53Z"/><path class="cls-2" d="M320.82,33.43c-4.39-3.41-9.28-1.42-10.24,.69-.39-.73-.78-1.59-2.04-2.03-2.89-3.29-.96-8.38,1.65-10.53,5.75,.3,11.2,6.18,10.63,11.86Z"/><path class="cls-4" d="M310.01,36.22s.9-.62,.57-2.11c2.12-3.3,7.41-3.14,10.24-.69-.24,5.05-5.09,9.37-9.28,9.49,2.09-5.16-1.53-6.69-1.53-6.69Z"/><path class="cls-2" d="M310.6,34.11c-.25-.8-.95-1.54-1.63-1.85-1.11-.5-2.35-.16-3.26,.59-.39,.32-.73,.71-.98,1.15-.48,.85-.66,1.92-.72,2.88s.31,1.84,.61,2.73c.17,.52,.65,.96,1.05,1.32,.43,.39,.91,.74,1.42,1.02,.73,.41,1.52,.71,2.34,.86,.58,.1,1.68,.3,2.2-.14,.15-.13,.19-.35,.24-.55,.24-.97,.4-1.99,.25-2.98-.09-.57-.29-1.13-.62-1.61-.16-.24-.36-.47-.58-.65s-.49-.31-.58-.6c-.1-.34,.15-.68,.27-1.02,.13-.37,.11-.77,0-1.15Z"/><path class="cls-2" d="M308.39,36.83c1.62-.13,1.83-.7,2.18-1.47"/></g><g><path class="cls-1" d="M3.26,45.56c-1.86-1.86-2.76-4.03-2.76-6.34,0-5.22,5.74-9.1,6.19-8.65,3.43,3.36,9.85,6.56,14.7,6.56,2.54,0,3.73-.75,3.73-2.24,0-1.57-2.61-2.31-6.12-3.51-5.52-2.01-11.94-5.15-11.94-13.43S13.11,.5,29.22,.5c8.5,0,14.32,2.01,17.53,5.22,1.64,1.64,2.46,3.58,2.46,5.74,0,6.12-6.56,10-7.01,9.55-3.51-4.03-8.88-6.79-13.13-6.79-2.91,0-4.1,.97-4.1,2.24,0,1.64,3.21,2.39,7.16,3.8,6.49,2.24,13.2,5.74,13.2,13.05,0,9.62-6.94,17.53-23.65,17.53-9.25,0-15.22-2.09-18.42-5.3Z"/><path class="cls-1" d="M48.91,33.69l2.83-13.28c1.34-6.34,3.58-8.43,8.06-8.43h1.79c4.7,0,9.03,1.94,7.61,8.43l-2.54,11.19c-.82,3.13,.15,5.22,2.76,5.22,1.49,0,2.31-.45,3.36-1.42l3.21-14.99c1.34-6.34,3.58-8.43,8.06-8.43h1.79c4.7,0,9.03,1.94,7.61,8.43l-3.95,18.5c-1.04,4.7-.3,6.56,2.01,7.61,.15,.15-1.49,4.25-8.88,4.25-4.1,0-6.86-1.27-8.43-3.36-.9-1.19-1.42-2.69-1.64-4.33-3.43,4.7-7.53,7.68-13.73,7.68-8.58,0-12.16-6.49-9.92-17.08Z"/><path class="cls-1" d="M129.92,50.78c-7.31,0-10.14-3.21-10.14-7.91,0-2.24,.37-3.95,1.64-8.43,.82-2.98,1.27-5,1.27-5.97,0-1.94-1.04-3.13-3.06-3.13-1.49,0-2.31,.45-3.36,1.42l-3.21,14.99c-1.34,6.34-3.58,8.43-8.06,8.43h-1.79c-4.7,0-9.03-1.94-7.61-8.43l6.04-28.57c.07-.37,2.31-1.19,5.15-1.19,3.36,0,6.64,1.42,8.28,4.63,.45,.9,.82,1.86,1.04,2.98,3.51-5,7.68-8.21,14.1-8.21,6.94,0,10.89,4.55,10.89,11.49,0,2.61-.67,5.52-2.09,10.52-.97,3.51-1.72,6.42-1.72,7.91,0,2.24,.97,3.28,2.83,3.8,.22,.07-1.64,5.67-10.22,5.67Z"/><path class="cls-3" d="M177.73,50.78c-7.31,0-10.14-3.21-10.14-7.91,0-2.24,.37-3.95,1.64-8.43,.82-2.98,1.27-5,1.27-5.97,0-1.94-1.04-3.13-3.06-3.13-1.49,0-2.31,.45-3.36,1.42l-3.21,14.99c-1.34,6.34-3.58,8.43-8.06,8.43h-1.79c-4.7,0-9.03-1.94-7.61-8.43l6.04-28.57c.07-.37,2.31-1.19,5.15-1.19,3.36,0,6.64,1.42,8.28,4.63,.45,.9,.82,1.86,1.04,2.98,3.51-5,7.68-8.21,14.1-8.21,6.94,0,10.89,4.55,10.89,11.49,0,2.61-.67,5.52-2.09,10.52-.97,3.51-1.72,6.42-1.72,7.91,0,2.24,.97,3.28,2.83,3.8,.22,.07-1.64,5.67-10.22,5.67Z"/><path class="cls-3" d="M191.83,33.99c0-13.8,10.59-22.6,23.5-22.6,10.89,0,16.49,4.92,16.49,12.01s-4.85,12.31-21.33,12.31c-1.49,0-3.06,0-4.7-.07,.22,.82,.6,1.49,1.12,2.01,1.12,1.19,2.91,1.79,5.37,1.79,3.95,0,7.38-1.79,9.17-4.1,.07-.07,6.79,.67,6.79,5.97,0,2.01-.9,3.73-2.54,5.37-2.16,2.16-6.86,4.1-13.65,4.1-14.17,0-20.22-7.16-20.22-16.78Zm17.16-6.56c6.56,0,9.1-1.04,9.1-3.13,0-1.27-1.19-2.46-3.51-2.46-3.36,0-6.04,2.39-7.53,5.59,.67,.07,1.34,0,1.94,0Z"/><path class="cls-3" d="M233.52,33.99c0-13.8,10.59-22.6,23.5-22.6,10.89,0,16.49,4.92,16.49,12.01s-4.85,12.31-21.33,12.31c-1.49,0-3.06,0-4.7-.07,.22,.82,.6,1.49,1.12,2.01,1.12,1.19,2.91,1.79,5.37,1.79,3.95,0,7.38-1.79,9.17-4.1,.07-.07,6.79,.67,6.79,5.97,0,2.01-.9,3.73-2.54,5.37-2.16,2.16-6.86,4.1-13.65,4.1-14.17,0-20.22-7.16-20.22-16.78Zm17.16-6.56c6.56,0,9.1-1.04,9.1-3.13,0-1.27-1.19-2.46-3.51-2.46-3.36,0-6.04,2.39-7.53,5.59,.67,.07,1.34,0,1.94,0Z"/></g></g></g></svg>