<?xml version="1.0" encoding="UTF-8"?><svg id="Livello_2" xmlns="http://www.w3.org/2000/svg" viewBox="0 0 262.44 58.61"><defs><style>.cls-1{stroke:#f2f2f2;}.cls-1,.cls-2{fill:#343434;stroke-miterlimit:10;}.cls-2{stroke:#1d1d1b;}.cls-3{fill:#010101;font-family:P22PooperBlackPro, 'P22 Pooper Black Pro';font-size:18px;}</style></defs><g id="Livello_5"><g><text class="cls-3" transform="translate(60.91 52.92)"><tspan x="0" y="0">Scegli lo stile sostenibile</tspan></text><g><g><path class="cls-1" d="M223.03,31.95c2.84,2.02,5.75,3.27,10.07,.43,1.18,6.1,5.13,7.53,6.09,8,.2,.1-8.93,2.5-9.94,2.52-.9,.02-3.13,.26-4.45-.12,0,0-2.11-.43-2.29-1.94s0-6.19,.52-8.9Z"/><path class="cls-1" d="M226.12,21.77c-1.81,3.54-2.82,8.55-3.09,10.18,3.14,2.31,6.06,3.17,10.07,.43-.35-2.49,.4-5.77,1.03-7.05,.1,.05-5.19,.56-8-3.57Z"/><path class="cls-1" d="M233.53,13.25c-5.41,3.35-7.41,8.52-7.41,8.52,2.17,3.3,6.67,3.8,8,3.57,0,0,1.06-3.26,4.68-6.17-2.25-.48-4.66-.95-5.27-5.92Z"/><path class="cls-1" d="M243.8,9.72c-2.28,.08-7.09,1.42-10.27,3.53,.59,5.99,5.27,5.92,5.27,5.92,0,0,3.24-1.96,5.86-1.98,.09,0-.2-.17-.25-.25-.57-.89-2.93-4.77-.61-7.22Z"/><path class="cls-1" d="M256,13.34c-3.89-3.05-8.01-4.11-12.2-3.61-2.55,2.9,.77,7.46,.77,7.46,0,0,3.05-.39,5.96,1.71,0,0,.32-5.27,5.48-5.56Z"/><path class="cls-1" d="M261.61,22.75c-.82-4.79-4.28-8.43-5.61-9.41-4.11,.24-5.62,4.16-5.48,5.56,1.2,1.03,3.26,2.76,3.75,5.94,2.15-3.95,6.38-2.68,7.34-2.1Z"/><path class="cls-1" d="M259.83,33.56c.25-.45,3.04-5.22,1.78-10.81-1.19-.83-5.55-1.5-7.34,2.1,.52,2.33-.62,4.56-.62,4.56,1.52-.42,5.59,.28,6.18,4.16Z"/><path class="cls-1" d="M251.07,40.74c2.68-.61,7.15-4.02,8.77-7.18-.14-2.27-2.8-4.82-6.18-4.16-.73,1.96-3.43,3.79-3.43,3.79,3.12,1.48,2.05,6.45,.84,7.55Z"/><path class="cls-1" d="M244.93,33.9c1.4,2.93-1.58,6.59-4.16,7,0,0,0,0,0,0,2.12,.48,6.62,.96,10.3-.17,.57-.16,2.89-5.53-.84-7.55,0,0,0,0,0,0-2.12,1.22-4.03,.99-5.3,.71,0,0,0,0,0,0Z"/><path class="cls-1" d="M241.58,31.58c-1.05,2.96-5.31,3.76-8.08,2.44,.95,3.67,4.25,6.21,7.28,6.88,3.27-.7,5.41-4.9,4.16-7-1.67-.47-2.55-1.19-3.35-2.32Z"/><path class="cls-1" d="M241.58,31.58c-.26-.49-1.14-2.61,.18-4.71,.07-.11-.33,.44-.36,.45-2.32,1.07-5.09-1.02-6.45-3.7-1.22,1.48-2.73,6.75-1.46,10.29,.75,.94,6.85,1.57,8.1-2.33Z"/><path class="cls-1" d="M244.66,25.54c-.64-.26-2.33,.03-3.02,1.54-.05,.11-.14,.21-.26,.25-1.77,.57-4.27,.06-6.45-3.7,1.94-3.89,6.64-6.87,11.03-6.43-3.68,3.56-2.36,7.28-1.3,8.34Z"/><path class="cls-1" d="M254.39,26.6c-3.48-2.7-7.36-1.12-8.11,.54-.31-.58-.62-1.26-1.61-1.61-2.29-2.61-.76-6.64,1.3-8.34,4.56,.24,8.88,4.9,8.42,9.4Z"/><path class="cls-1" d="M245.82,28.81s.72-.49,.45-1.67c1.68-2.61,5.87-2.49,8.11-.54-.19,4-4.03,7.43-7.36,7.52,1.65-4.09-1.21-5.3-1.21-5.3Z"/><path class="cls-1" d="M246.29,27.14c-.2-.64-.75-1.22-1.29-1.47-.88-.4-1.87-.13-2.59,.47-.31,.25-.58,.56-.77,.91-.38,.67-.53,1.52-.57,2.28s.25,1.46,.48,2.16c.14,.42,.52,.76,.83,1.05,.34,.31,.72,.58,1.12,.81,.58,.32,1.2,.56,1.86,.68,.46,.08,1.33,.24,1.74-.11,.12-.1,.15-.28,.19-.44,.19-.77,.32-1.57,.19-2.36-.07-.45-.23-.89-.49-1.28-.13-.19-.28-.37-.46-.52s-.39-.25-.46-.47c-.08-.27,.12-.54,.22-.81,.1-.29,.09-.61,0-.91Z"/><path class="cls-1" d="M244.53,29.29c1.29-.1,1.45-.55,1.73-1.16"/></g><g><path class="cls-2" d="M2.69,36.21c-1.48-1.48-2.19-3.19-2.19-5.03,0-4.14,4.55-7.21,4.91-6.86,2.72,2.66,7.8,5.2,11.65,5.2,2.01,0,2.96-.59,2.96-1.77,0-1.24-2.07-1.83-4.85-2.78-4.38-1.6-9.46-4.08-9.46-10.64S10.49,.5,23.26,.5c6.74,0,11.35,1.6,13.89,4.14,1.3,1.3,1.95,2.84,1.95,4.55,0,4.85-5.2,7.92-5.56,7.57-2.78-3.19-7.04-5.38-10.41-5.38-2.31,0-3.25,.77-3.25,1.77,0,1.3,2.54,1.89,5.68,3.02,5.14,1.77,10.46,4.55,10.46,10.35,0,7.63-5.5,13.89-18.74,13.89-7.33,0-12.06-1.66-14.6-4.2Z"/><path class="cls-2" d="M38.87,26.81l2.25-10.52c1.06-5.03,2.84-6.68,6.39-6.68h1.42c3.72,0,7.15,1.54,6.03,6.68l-2.01,8.87c-.65,2.48,.12,4.14,2.19,4.14,1.18,0,1.83-.35,2.66-1.12l2.54-11.88c1.06-5.03,2.84-6.68,6.39-6.68h1.42c3.72,0,7.15,1.54,6.03,6.68l-3.13,14.66c-.83,3.72-.24,5.2,1.6,6.03,.12,.12-1.18,3.37-7.04,3.37-3.25,0-5.44-1-6.68-2.66-.71-.95-1.12-2.13-1.3-3.43-2.72,3.72-5.97,6.09-10.88,6.09-6.8,0-9.64-5.14-7.86-13.54Z"/><path class="cls-2" d="M103.08,40.35c-5.79,0-8.04-2.54-8.04-6.27,0-1.77,.3-3.13,1.3-6.68,.65-2.37,1-3.96,1-4.73,0-1.54-.83-2.48-2.42-2.48-1.18,0-1.83,.35-2.66,1.12l-2.54,11.88c-1.06,5.03-2.84,6.68-6.39,6.68h-1.42c-3.72,0-7.15-1.54-6.03-6.68l4.79-22.64c.06-.3,1.83-.95,4.08-.95,2.66,0,5.26,1.12,6.56,3.67,.35,.71,.65,1.48,.83,2.36,2.78-3.96,6.09-6.5,11.17-6.5,5.5,0,8.63,3.61,8.63,9.11,0,2.07-.53,4.38-1.66,8.34-.77,2.78-1.36,5.08-1.36,6.27,0,1.77,.77,2.6,2.25,3.02,.18,.06-1.3,4.49-8.1,4.49Z"/><path class="cls-2" d="M140.98,40.35c-5.79,0-8.04-2.54-8.04-6.27,0-1.77,.3-3.13,1.3-6.68,.65-2.37,1-3.96,1-4.73,0-1.54-.83-2.48-2.42-2.48-1.18,0-1.83,.35-2.66,1.12l-2.54,11.88c-1.06,5.03-2.84,6.68-6.39,6.68h-1.42c-3.72,0-7.15-1.54-6.03-6.68l4.79-22.64c.06-.3,1.83-.95,4.08-.95,2.66,0,5.26,1.12,6.56,3.67,.35,.71,.65,1.48,.83,2.36,2.78-3.96,6.09-6.5,11.17-6.5,5.5,0,8.63,3.61,8.63,9.11,0,2.07-.53,4.38-1.66,8.34-.77,2.78-1.36,5.08-1.36,6.27,0,1.77,.77,2.6,2.25,3.02,.18,.06-1.3,4.49-8.1,4.49Z"/><path class="cls-2" d="M152.15,27.05c0-10.94,8.4-17.91,18.62-17.91,8.63,0,13.07,3.9,13.07,9.52s-3.84,9.76-16.91,9.76c-1.18,0-2.42,0-3.72-.06,.18,.65,.47,1.18,.89,1.6,.89,.95,2.31,1.42,4.26,1.42,3.13,0,5.85-1.42,7.27-3.25,.06-.06,5.38,.53,5.38,4.73,0,1.6-.71,2.96-2.01,4.26-1.71,1.71-5.44,3.25-10.82,3.25-11.23,0-16.02-5.68-16.02-13.3Zm13.6-5.2c5.2,0,7.21-.83,7.21-2.48,0-1-.95-1.95-2.78-1.95-2.66,0-4.79,1.89-5.97,4.43,.53,.06,1.06,0,1.54,0Z"/><path class="cls-2" d="M185.2,27.05c0-10.94,8.4-17.91,18.62-17.91,8.63,0,13.07,3.9,13.07,9.52s-3.84,9.76-16.91,9.76c-1.18,0-2.42,0-3.72-.06,.18,.65,.47,1.18,.89,1.6,.89,.95,2.31,1.42,4.26,1.42,3.13,0,5.85-1.42,7.27-3.25,.06-.06,5.38,.53,5.38,4.73,0,1.6-.71,2.96-2.01,4.26-1.71,1.71-5.44,3.25-10.82,3.25-11.23,0-16.02-5.68-16.02-13.3Zm13.6-5.2c5.2,0,7.21-.83,7.21-2.48,0-1-.95-1.95-2.78-1.95-2.66,0-4.79,1.89-5.97,4.43,.53,.06,1.06,0,1.54,0Z"/></g></g></g></g></svg>