<?xml version="1.0" encoding="UTF-8"?><svg id="Livello_2" xmlns="http://www.w3.org/2000/svg" viewBox="0 0 440.63 98.13"><defs><style>.cls-1{fill:#fcc65d;}.cls-1,.cls-2,.cls-3,.cls-4{stroke-miterlimit:10;}.cls-1,.cls-3{stroke:#1d1d1b;}.cls-2{fill:#fbc45d;}.cls-2,.cls-4{stroke:#1e1e1c;}.cls-3{fill:#3aa0aa;}.cls-4{fill:#389fa9;}.cls-5{fill:#010101;font-family:P22PooperBlackPro, 'P22 Pooper Black Pro';font-size:30px;}</style></defs><g id="Livello_5"><g><text class="cls-5" transform="translate(103.13 88.65)"><tspan x="0" y="0">Scegli lo stile sostenibile</tspan></text><g><g><path class="cls-2" d="M374.69,53.39c4.78,3.4,9.67,5.5,16.93,.73,1.98,10.27,8.63,12.66,10.24,13.46,.33,.16-15.02,4.21-16.71,4.24-1.52,.03-5.27,.43-7.49-.2,0,0-3.55-.72-3.86-3.26-.31-2.54,0-10.4,.88-14.97Z"/><path class="cls-4" d="M379.9,36.27c-3.05,5.96-4.75,14.38-5.2,17.12,5.28,3.89,10.19,5.32,16.93,.73-.59-4.18,.67-9.7,1.73-11.85,.17,.08-8.72,.95-13.45-6Z"/><path class="cls-2" d="M392.36,21.95c-9.1,5.63-12.46,14.32-12.46,14.32,3.65,5.54,11.21,6.39,13.45,6,0,0,1.77-5.48,7.87-10.38-3.79-.81-7.83-1.6-8.86-9.95Z"/><path class="cls-4" d="M409.62,16.01c-3.83,.14-11.93,2.39-17.26,5.94,.99,10.07,8.86,9.95,8.86,9.95,0,0,5.45-3.3,9.85-3.32,.15,0-.34-.29-.42-.42-.95-1.5-4.93-8.01-1.02-12.15Z"/><path class="cls-2" d="M430.14,22.08c-6.54-5.12-13.47-6.91-20.52-6.08-4.3,4.87,1.29,12.55,1.29,12.55,0,0,5.12-.65,10.01,2.88,0,0,.54-8.87,9.21-9.36Z"/><path class="cls-4" d="M439.58,37.91c-1.39-8.06-7.2-14.18-9.44-15.83-6.92,.4-9.45,6.99-9.21,9.36,2.02,1.73,5.48,4.64,6.31,10,3.62-6.64,10.72-4.5,12.34-3.52Z"/><path class="cls-2" d="M436.59,56.09c.41-.75,5.11-8.78,2.99-18.18-2-1.39-9.33-2.53-12.34,3.52,.87,3.92-1.04,7.66-1.04,7.66,2.55-.7,9.39,.46,10.39,6.99Z"/><path class="cls-4" d="M421.85,68.16c4.5-1.02,12.02-6.75,14.74-12.07-.24-3.82-4.71-8.1-10.39-6.99-1.22,3.3-5.76,6.37-5.76,6.37,5.24,2.49,3.44,10.85,1.41,12.69Z"/><path class="cls-2" d="M411.53,56.66c2.36,4.94-2.66,11.09-6.99,11.78,0,0,0,0,0,0,3.57,.8,11.14,1.61,17.31-.28,.96-.27,4.85-9.3-1.41-12.69,0,0,0,0,0,0-3.56,2.05-6.78,1.67-8.91,1.2,0,0,0,0,0,0Z"/><path class="cls-4" d="M405.89,52.77c-1.76,4.98-8.92,6.33-13.59,4.11,1.59,6.17,7.15,10.43,12.23,11.56,5.5-1.17,9.1-8.23,6.99-11.78-2.81-.78-4.28-2.01-5.64-3.89Z"/><path class="cls-2" d="M405.89,52.77c-.44-.82-1.91-4.39,.3-7.91,.12-.19-.56,.73-.61,.76-3.9,1.8-8.55-1.72-10.85-6.23-2.05,2.5-4.6,11.35-2.46,17.31,1.26,1.59,11.52,2.64,13.63-3.92Z"/><path class="cls-4" d="M411.08,42.6c-1.07-.44-3.92,.05-5.07,2.59-.09,.19-.23,.35-.43,.42-2.97,.96-7.19,.11-10.85-6.23,3.27-6.54,11.17-11.54,18.55-10.81-6.19,5.99-3.97,12.25-2.19,14.03Z"/><path class="cls-2" d="M427.43,44.39c-5.85-4.54-12.37-1.89-13.64,.92-.52-.97-1.04-2.12-2.71-2.7-3.85-4.39-1.28-11.16,2.19-14.03,7.66,.4,14.92,8.23,14.17,15.81Z"/><path class="cls-4" d="M413.03,48.11s1.2-.83,.76-2.81c2.82-4.4,9.87-4.19,13.64-.92-.32,6.73-6.78,12.49-12.37,12.64,2.78-6.88-2.04-8.92-2.04-8.92Z"/><path class="cls-2" d="M413.81,45.3c-.34-1.07-1.27-2.06-2.17-2.46-1.48-.67-3.14-.21-4.35,.78-.52,.43-.97,.95-1.3,1.53-.63,1.13-.89,2.56-.95,3.84s.42,2.46,.81,3.64c.23,.7,.87,1.28,1.4,1.76,.58,.52,1.21,.98,1.89,1.36,.97,.54,2.03,.95,3.12,1.14,.78,.14,2.24,.4,2.93-.19,.21-.17,.26-.47,.32-.73,.32-1.3,.54-2.65,.33-3.97-.12-.76-.39-1.5-.82-2.14-.22-.32-.48-.62-.78-.87s-.66-.41-.77-.8c-.14-.46,.21-.91,.37-1.36,.18-.49,.15-1.02-.01-1.54Z"/><path class="cls-2" d="M410.86,48.92c2.16-.17,2.45-.93,2.91-1.95"/></g><g><path class="cls-1" d="M4.18,60.55c-2.49-2.49-3.68-5.37-3.68-8.45,0-6.96,7.66-12.13,8.25-11.53,4.57,4.47,13.12,8.75,19.59,8.75,3.38,0,4.97-.99,4.97-2.98,0-2.09-3.48-3.08-8.15-4.67-7.36-2.68-15.91-6.86-15.91-17.9S17.3,.5,38.78,.5c11.33,0,19.09,2.68,23.36,6.96,2.19,2.19,3.28,4.77,3.28,7.66,0,8.15-8.75,13.32-9.35,12.73-4.67-5.37-11.83-9.05-17.5-9.05-3.88,0-5.47,1.29-5.47,2.98,0,2.19,4.27,3.18,9.54,5.07,8.65,2.98,17.6,7.66,17.6,17.4,0,12.82-9.25,23.36-31.52,23.36-12.33,0-20.28-2.78-24.56-7.06Z"/><path class="cls-1" d="M65.02,44.74l3.78-17.7c1.79-8.45,4.77-11.24,10.74-11.24h2.39c6.26,0,12.03,2.59,10.14,11.24l-3.38,14.91c-1.09,4.18,.2,6.96,3.68,6.96,1.99,0,3.08-.6,4.47-1.89l4.28-19.98c1.79-8.45,4.77-11.24,10.74-11.24h2.39c6.26,0,12.03,2.59,10.14,11.24l-5.27,24.66c-1.39,6.26-.4,8.75,2.68,10.14,.2,.2-1.99,5.67-11.83,5.67-5.47,0-9.15-1.69-11.23-4.47-1.19-1.59-1.89-3.58-2.19-5.77-4.57,6.26-10.04,10.24-18.29,10.24-11.43,0-16.21-8.65-13.22-22.77Z"/><path class="cls-1" d="M172.99,67.51c-9.74,0-13.52-4.27-13.52-10.54,0-2.98,.5-5.27,2.19-11.24,1.09-3.98,1.69-6.66,1.69-7.95,0-2.59-1.39-4.18-4.08-4.18-1.99,0-3.08,.6-4.47,1.89l-4.27,19.98c-1.79,8.45-4.77,11.23-10.74,11.23h-2.39c-6.26,0-12.03-2.59-10.14-11.23l8.05-38.08c.1-.5,3.08-1.59,6.86-1.59,4.47,0,8.85,1.89,11.04,6.16,.6,1.19,1.09,2.49,1.39,3.98,4.67-6.66,10.24-10.94,18.79-10.94,9.25,0,14.52,6.07,14.52,15.31,0,3.48-.89,7.36-2.78,14.02-1.29,4.67-2.29,8.55-2.29,10.54,0,2.98,1.29,4.37,3.78,5.07,.3,.1-2.19,7.56-13.62,7.56Z"/><path class="cls-3" d="M236.72,67.51c-9.74,0-13.52-4.27-13.52-10.54,0-2.98,.5-5.27,2.19-11.24,1.09-3.98,1.69-6.66,1.69-7.95,0-2.59-1.39-4.18-4.08-4.18-1.99,0-3.08,.6-4.47,1.89l-4.27,19.98c-1.79,8.45-4.77,11.23-10.74,11.23h-2.39c-6.26,0-12.03-2.59-10.14-11.23l8.05-38.08c.1-.5,3.08-1.59,6.86-1.59,4.47,0,8.85,1.89,11.04,6.16,.6,1.19,1.09,2.49,1.39,3.98,4.67-6.66,10.24-10.94,18.79-10.94,9.25,0,14.52,6.07,14.52,15.31,0,3.48-.89,7.36-2.78,14.02-1.29,4.67-2.29,8.55-2.29,10.54,0,2.98,1.29,4.37,3.78,5.07,.3,.1-2.19,7.56-13.62,7.56Z"/><path class="cls-3" d="M255.51,45.14c0-18.39,14.12-30.13,31.32-30.13,14.52,0,21.97,6.56,21.97,16.01s-6.46,16.41-28.43,16.41c-1.99,0-4.08,0-6.26-.1,.3,1.09,.8,1.99,1.49,2.68,1.49,1.59,3.88,2.39,7.16,2.39,5.27,0,9.84-2.39,12.23-5.47,.1-.1,9.05,.9,9.05,7.95,0,2.68-1.19,4.97-3.38,7.16-2.88,2.88-9.15,5.47-18.19,5.47-18.89,0-26.94-9.54-26.94-22.37Zm22.87-8.75c8.75,0,12.13-1.39,12.13-4.18,0-1.69-1.59-3.28-4.67-3.28-4.47,0-8.05,3.18-10.04,7.46,.89,.1,1.79,0,2.59,0Z"/><path class="cls-3" d="M311.08,45.14c0-18.39,14.12-30.13,31.32-30.13,14.52,0,21.97,6.56,21.97,16.01s-6.46,16.41-28.43,16.41c-1.99,0-4.08,0-6.26-.1,.3,1.09,.8,1.99,1.49,2.68,1.49,1.59,3.88,2.39,7.16,2.39,5.27,0,9.84-2.39,12.23-5.47,.1-.1,9.05,.9,9.05,7.95,0,2.68-1.19,4.97-3.38,7.16-2.88,2.88-9.15,5.47-18.19,5.47-18.89,0-26.94-9.54-26.94-22.37Zm22.87-8.75c8.75,0,12.13-1.39,12.13-4.18,0-1.69-1.59-3.28-4.67-3.28-4.47,0-8.05,3.18-10.04,7.46,.89,.1,1.79,0,2.59,0Z"/></g></g></g></g></svg>