<svg xmlns="http://www.w3.org/2000/svg" viewBox="0 0 330.84 54.63"><defs><style>.cls-1{fill:#fbc45d;}.cls-1,.cls-2{stroke:#1e1e1c;}.cls-1,.cls-2,.cls-3,.cls-4{stroke-miterlimit:10;}.cls-2{fill:#389fa9;}.cls-3{fill:#fcc65d;}.cls-3,.cls-4{stroke:#1d1d1b;}.cls-4{fill:#3aa0aa;}</style></defs><g id="Livello_2" data-name="Livello 2"><g id="Livello_5" data-name="Livello 5"><path class="cls-1" d="M281.25,40.18c3.59,2.56,7.25,4.13,12.7.55,1.49,7.7,6.48,9.5,7.68,10.1A117.56,117.56,0,0,1,289.1,54c-1.14,0-4,.32-5.62-.15,0,0-2.66-.54-2.89-2.44A52.44,52.44,0,0,1,281.25,40.18Z"/><path class="cls-2" d="M285.15,27.34a50.82,50.82,0,0,0-3.9,12.84c4,2.92,7.65,4,12.7.55a18.67,18.67,0,0,1,1.3-8.89C295.37,31.9,288.7,32.55,285.15,27.34Z"/><path class="cls-1" d="M294.5,16.59a24.46,24.46,0,0,0-9.35,10.75c2.74,4.15,8.41,4.79,10.1,4.5a18.45,18.45,0,0,1,5.9-7.79C298.31,23.45,295.28,22.85,294.5,16.59Z"/><path class="cls-2" d="M307.46,12.13a30.56,30.56,0,0,0-13,4.46c.75,7.56,6.65,7.46,6.65,7.46s4.09-2.47,7.39-2.49c.11,0-.26-.22-.32-.31C307.51,20.12,304.52,15.24,307.46,12.13Z"/><path class="cls-1" d="M322.85,16.69a20.37,20.37,0,0,0-15.39-4.56c-3.23,3.66,1,9.42,1,9.42a11.46,11.46,0,0,1,7.51,2.16S316.34,17.06,322.85,16.69Z"/><path class="cls-2" d="M329.93,28.57a20.88,20.88,0,0,0-7.08-11.88,7.36,7.36,0,0,0-6.91,7,12.07,12.07,0,0,1,4.73,7.5C323.39,26.23,328.72,27.83,329.93,28.57Z"/><path class="cls-1" d="M327.69,42.21c.31-.57,3.84-6.59,2.24-13.64-1.5-1-7-1.9-9.26,2.64a9.61,9.61,0,0,1-.78,5.75C321.81,36.43,326.94,37.31,327.69,42.21Z"/><path class="cls-2" d="M316.63,51.26c3.38-.76,9-5.06,11.06-9-.18-2.87-3.54-6.08-7.8-5.25-.91,2.48-4.32,4.78-4.32,4.78C319.5,43.61,318.15,49.88,316.63,51.26Z"/><path class="cls-1" d="M308.89,42.64c1.77,3.7-2,8.32-5.25,8.84h0c2.68.6,8.35,1.21,13-.22.72-.2,3.64-7-1.06-9.52h0a8.9,8.9,0,0,1-6.68.9Z"/><path class="cls-2" d="M304.65,39.72c-1.32,3.73-6.69,4.74-10.19,3.08a12.54,12.54,0,0,0,9.18,8.68c4.13-.88,6.82-6.18,5.25-8.84A7,7,0,0,1,304.65,39.72Z"/><path class="cls-1" d="M304.65,39.72a6.17,6.17,0,0,1,.23-5.94c.09-.14-.42.55-.46.57-2.93,1.34-6.42-1.3-8.14-4.68-1.55,1.88-3.45,8.52-1.85,13C295.37,43.85,303.07,44.64,304.65,39.72Z"/><path class="cls-2" d="M308.55,32.09A3.39,3.39,0,0,0,304.74,34a.53.53,0,0,1-.32.32c-2.23.72-5.4.08-8.14-4.68,2.45-4.91,8.37-8.66,13.91-8.11C305.55,26.06,307.22,30.75,308.55,32.09Z"/><path class="cls-1" d="M320.82,33.43c-4.39-3.41-9.28-1.42-10.24.69a3.44,3.44,0,0,0-2-2c-2.89-3.29-1-8.38,1.64-10.53C315.94,21.87,321.39,27.74,320.82,33.43Z"/><path class="cls-2" d="M310,36.22a2,2,0,0,0,.57-2.1c2.12-3.3,7.41-3.15,10.24-.69-.24,5-5.09,9.37-9.28,9.48C313.62,37.75,310,36.22,310,36.22Z"/><path class="cls-1" d="M310.6,34.11A3.25,3.25,0,0,0,309,32.26a3.13,3.13,0,0,0-3.26.59,4.16,4.16,0,0,0-1,1.15,6.7,6.7,0,0,0-.72,2.88,7.58,7.58,0,0,0,.61,2.73,3.37,3.37,0,0,0,1.05,1.32,7.57,7.57,0,0,0,1.42,1,7.73,7.73,0,0,0,2.34.85c.58.1,1.68.3,2.2-.14a1,1,0,0,0,.24-.55,7.71,7.71,0,0,0,.25-3,4.06,4.06,0,0,0-.62-1.61,3.31,3.31,0,0,0-.59-.65c-.21-.18-.49-.31-.58-.6s.16-.68.28-1A1.81,1.81,0,0,0,310.6,34.11Z"/><path class="cls-1" d="M308.39,36.83c1.62-.13,1.83-.7,2.18-1.47"/><path class="cls-3" d="M3.26,45.56A8.82,8.82,0,0,1,.5,39.21c0-5.22,5.74-9.1,6.19-8.65,3.43,3.36,9.85,6.57,14.7,6.57,2.53,0,3.73-.75,3.73-2.24S22.51,32.58,19,31.38C13.48,29.37,7.06,26.24,7.06,18,7.06,9.3,13.11.5,29.22.5c8.5,0,14.32,2,17.53,5.22a7.92,7.92,0,0,1,2.46,5.75c0,6.11-6.56,10-7,9.54-3.51-4-8.88-6.78-13.13-6.78-2.91,0-4.1,1-4.1,2.23,0,1.64,3.2,2.39,7.16,3.81,6.49,2.24,13.2,5.74,13.2,13.05,0,9.62-6.94,17.53-23.65,17.53C12.44,50.85,6.47,48.76,3.26,45.56Z"/><path class="cls-3" d="M48.91,33.69l2.83-13.27C53.09,14.08,55.32,12,59.8,12h1.79c4.7,0,9,1.94,7.61,8.43L66.66,31.61c-.82,3.13.15,5.22,2.76,5.22a4.34,4.34,0,0,0,3.36-1.42l3.21-15C77.33,14.08,79.57,12,84,12h1.79c4.7,0,9,1.94,7.61,8.43l-4,18.5c-1,4.7-.3,6.56,2,7.6.15.15-1.49,4.26-8.87,4.26-4.11,0-6.87-1.27-8.43-3.36a9.13,9.13,0,0,1-1.64-4.33c-3.43,4.7-7.54,7.69-13.73,7.69C50.25,50.78,46.67,44.29,48.91,33.69Z"/><path class="cls-3" d="M129.92,50.78c-7.31,0-10.15-3.21-10.15-7.91,0-2.24.38-3.95,1.64-8.43a30.21,30.21,0,0,0,1.27-6,2.81,2.81,0,0,0-3.06-3.13,4.33,4.33,0,0,0-3.35,1.42l-3.21,15c-1.34,6.34-3.58,8.43-8.06,8.43h-1.79c-4.7,0-9-1.94-7.61-8.43l6.05-28.57c.07-.37,2.31-1.19,5.14-1.19,3.36,0,6.64,1.41,8.28,4.62a12,12,0,0,1,1.05,3c3.5-5,7.68-8.21,14.1-8.21,6.93,0,10.89,4.55,10.89,11.49,0,2.61-.67,5.52-2.09,10.52a40.3,40.3,0,0,0-1.72,7.9,3.45,3.45,0,0,0,2.84,3.81C140.36,45.18,138.5,50.78,129.92,50.78Z"/><path class="cls-4" d="M177.73,50.78c-7.31,0-10.14-3.21-10.14-7.91,0-2.24.37-3.95,1.64-8.43a30.21,30.21,0,0,0,1.27-6,2.81,2.81,0,0,0-3.06-3.13,4.35,4.35,0,0,0-3.36,1.42l-3.21,15c-1.34,6.34-3.58,8.43-8.05,8.43H151c-4.7,0-9-1.94-7.61-8.43l6-28.57c.07-.37,2.31-1.19,5.15-1.19,3.35,0,6.64,1.41,8.28,4.62a12,12,0,0,1,1,3c3.51-5,7.68-8.21,14.1-8.21,6.94,0,10.89,4.55,10.89,11.49,0,2.61-.67,5.52-2.09,10.52a40.07,40.07,0,0,0-1.71,7.9A3.45,3.45,0,0,0,188,45.11C188.17,45.18,186.31,50.78,177.73,50.78Z"/><path class="cls-4" d="M191.83,34c0-13.8,10.59-22.6,23.5-22.6,10.89,0,16.48,4.92,16.48,12,0,7.24-4.85,12.31-21.33,12.31-1.5,0-3.06,0-4.7-.08a4.34,4.34,0,0,0,1.12,2c1.11,1.19,2.91,1.79,5.37,1.79a11.75,11.75,0,0,0,9.17-4.1c.08-.08,6.79.67,6.79,6a7.45,7.45,0,0,1-2.54,5.37c-2.16,2.17-6.86,4.11-13.65,4.11C197.87,50.78,191.83,43.62,191.83,34ZM209,27.43c6.57,0,9.11-1.05,9.11-3.13,0-1.27-1.2-2.47-3.51-2.47-3.36,0-6,2.39-7.53,5.6A17.73,17.73,0,0,0,209,27.43Z"/><path class="cls-4" d="M233.52,34c0-13.8,10.6-22.6,23.5-22.6,10.89,0,16.49,4.92,16.49,12,0,7.24-4.85,12.31-21.34,12.31-1.49,0-3.06,0-4.7-.08a4.52,4.52,0,0,0,1.12,2q1.68,1.79,5.37,1.79a11.75,11.75,0,0,0,9.18-4.1c.07-.08,6.79.67,6.79,6a7.45,7.45,0,0,1-2.54,5.37c-2.16,2.17-6.86,4.11-13.65,4.11C239.57,50.78,233.52,43.62,233.52,34Zm17.16-6.56c6.57,0,9.1-1.05,9.1-3.13,0-1.27-1.19-2.47-3.5-2.47-3.36,0-6,2.39-7.54,5.6A17.92,17.92,0,0,0,250.68,27.43Z"/></g></g></svg>