<svg width="500" height="350" viewBox="0 0 500 350" fill="none" xmlns="http://www.w3.org/2000/svg">
<rect width="500" height="350" fill="#B8859E"/>
<path d="M29.83 121.44C29.83 143.55 43.91 154.77 62.61 154.77C81.2 154.77 96.6 143.55 96.6 121.44V76.45H75.04V121.44C75.04 129.47 71.19 134.53 63.05 134.53C54.91 134.53 51.28 129.47 51.28 121.44V76.45H29.83V121.44ZM146.971 154H171.171L149.391 123.75L170.401 92.29H146.751L137.841 107.8L126.731 92.29H102.531L123.981 121.99L103.411 154H127.061L135.861 138.49L146.971 154ZM191.007 175.23H211.798L241.168 49.28H220.378L191.007 175.23ZM266.158 121.44C266.158 143.55 280.238 154.77 298.938 154.77C317.528 154.77 332.928 143.55 332.928 121.44V76.45H311.368V121.44C311.368 129.47 307.518 134.53 299.378 134.53C291.238 134.53 287.608 129.47 287.608 121.44V76.45H266.158V121.44ZM344.799 154H366.359V92.29H344.799V154ZM355.689 86.57C363.279 86.57 368.229 81.73 368.229 75.57C368.229 69.3 363.279 64.35 355.689 64.35C347.989 64.35 343.039 69.3 343.039 75.57C343.039 81.73 347.989 86.57 355.689 86.57ZM26.64 243.09C26.64 262.78 38.3 274.77 52.93 274.77C61.62 274.77 67.78 270.92 70.97 265.42V274H92.64V192.6H70.97V220.76C67.56 215.15 61.18 211.52 53.04 211.52C38.3 211.52 26.64 223.4 26.64 243.09ZM71.08 243.09C71.08 251.45 65.91 255.96 59.86 255.96C53.7 255.96 48.64 251.34 48.64 243.09C48.64 234.73 53.7 230.33 59.86 230.33C65.91 230.33 71.08 234.84 71.08 243.09ZM132.646 228.57C137.596 228.57 141.886 231.54 141.886 237.04H122.856C123.846 231.43 127.476 228.57 132.646 228.57ZM162.566 252.66H139.576C138.366 255.19 136.056 257.5 131.876 257.5C127.036 257.5 123.186 254.64 122.746 247.49H163.556C163.776 245.84 163.886 244.08 163.886 242.43C163.886 223.29 151.016 211.52 132.756 211.52C114.276 211.52 101.406 223.51 101.406 243.09C101.406 262.78 114.496 274.77 132.756 274.77C148.156 274.77 159.706 265.31 162.566 252.66ZM224.629 255.85C224.519 232.42 191.629 239.46 191.629 230.66C191.629 228.35 193.499 226.92 197.019 226.92C201.639 226.92 204.389 229.23 205.049 233.08H224.519C223.089 220.87 214.289 211.52 197.459 211.52C180.739 211.52 171.829 220.43 171.829 231.21C171.829 253.87 204.609 246.5 204.609 255.52C204.609 257.72 202.519 259.48 198.889 259.48C194.379 259.48 190.969 257.28 190.419 253.21H169.519C170.399 265.53 181.839 274.77 198.999 274.77C214.949 274.77 224.629 266.63 224.629 255.85ZM235.228 274H256.788V212.29H235.228V274ZM246.118 206.57C253.708 206.57 258.658 201.73 258.658 195.57C258.658 189.3 253.708 184.35 246.118 184.35C238.418 184.35 233.468 189.3 233.468 195.57C233.468 201.73 238.418 206.57 246.118 206.57ZM265.546 243.09C265.546 262.78 277.206 274.77 291.836 274.77C300.526 274.77 306.796 270.92 309.986 265.42V273.34C309.986 282.91 305.036 285.66 298.986 285.66C293.486 285.66 289.746 283.35 288.866 279.39H267.636C269.176 294.68 281.056 304.36 300.306 304.36C322.526 304.36 331.546 289.84 331.546 273.34V212.29H309.986V220.87C306.796 215.37 300.526 211.52 291.836 211.52C277.206 211.52 265.546 223.4 265.546 243.09ZM309.986 243.09C309.986 251.45 304.816 255.96 298.766 255.96C292.606 255.96 287.546 251.34 287.546 243.09C287.546 234.73 292.606 230.33 298.766 230.33C304.816 230.33 309.986 234.84 309.986 243.09ZM385.852 274H407.412V238.03C407.412 221.86 398.502 211.74 384.202 211.74C375.512 211.74 369.022 215.81 365.392 221.09V212.29H343.832V274H365.392V240.89C365.392 233.74 369.352 229.56 375.732 229.56C381.892 229.56 385.852 233.74 385.852 240.89V274Z" fill="#FFF5FC" fill-opacity="0.2"/>
<path d="M25.7 128C25.7 146.5 36.9 154.7 51.1 154.7C65.3 154.7 76.5 146.5 76.5 128V84.1H69.5V128.1C69.5 142.6 62.1 148.5 51.2 148.5C40.3 148.5 32.7 142.6 32.7 128.1V84.1H25.7V128ZM120.713 154H128.613L111.013 126.4L128.413 99.4H121.113L107.613 121.1L93.7133 99.4H85.8133L103.213 126.7L85.6133 154H93.0133L106.613 132L120.713 154ZM162.151 170.6H169.051L196.651 60H189.551L162.151 170.6ZM236.833 128C236.833 146.5 248.033 154.7 262.233 154.7C276.433 154.7 287.633 146.5 287.633 128V84.1H280.633V128.1C280.633 142.6 273.233 148.5 262.333 148.5C251.433 148.5 243.833 142.6 243.833 128.1V84.1H236.833V128ZM303.246 154H310.246V99.4H303.246V154ZM306.746 89.1C309.546 89.1 311.846 86.9 311.846 83.9C311.846 80.9 309.546 78.8 306.746 78.8C303.946 78.8 301.646 80.9 301.646 83.9C301.646 86.9 303.946 89.1 306.746 89.1ZM22.8 246.6C22.8 263.7 33.9 274.8 48.9 274.8C59.7 274.8 67.3 269 70.5 261.8V274H77.5V200H70.5V231.2C67 224 58.8 218.6 49 218.6C33.9 218.6 22.8 229.5 22.8 246.6ZM70.5 246.7C70.5 260.3 61.4 268.7 50.2 268.7C38.7 268.7 29.9 260.4 29.9 246.6C29.9 232.7 38.7 224.7 50.2 224.7C61.4 224.7 70.5 233.1 70.5 246.7ZM116.78 224.6C126.88 224.6 136.08 231 135.78 243.7H97.3805C98.1805 231 106.88 224.6 116.78 224.6ZM142.08 256.7H134.68C132.68 264 126.38 268.9 117.08 268.9C106.88 268.9 97.9805 262.2 97.3805 249.4H142.68C142.88 247.5 142.88 246.1 142.88 243.9C142.88 230 133.08 218.6 117.08 218.6C101.38 218.6 90.2805 229.3 90.2805 246.7C90.2805 264 101.58 274.8 117.08 274.8C130.78 274.8 139.58 267 142.08 256.7ZM193.488 259.5C193.188 240.2 160.887 248.1 160.887 233.3C160.887 228.5 165.488 224.6 172.788 224.6C181.088 224.6 185.588 229.2 185.988 235.3H192.988C192.388 224.8 184.688 218.6 172.988 218.6C161.488 218.6 153.788 225.3 153.788 233.4C153.788 253.9 186.588 246 186.588 259.5C186.588 264.7 182.188 268.9 174.388 268.9C165.488 268.9 160.288 264.6 159.688 258.6H152.488C153.388 268.6 162.088 274.8 174.488 274.8C185.788 274.8 193.488 268.3 193.488 259.5ZM206.664 274H213.664V219.4H206.664V274ZM210.164 209.1C212.964 209.1 215.264 206.9 215.264 203.9C215.264 200.9 212.964 198.8 210.164 198.8C207.364 198.8 205.064 200.9 205.064 203.9C205.064 206.9 207.364 209.1 210.164 209.1ZM226.316 246.6C226.316 263.7 237.416 274.8 252.416 274.8C263.216 274.8 270.816 268.9 274.016 261.9V275.4C274.016 287.8 265.916 294.7 255.516 294.7C245.516 294.7 238.616 289.6 236.316 282.2H229.416C231.616 293.6 241.416 300.8 255.516 300.8C270.516 300.8 281.016 290.7 281.016 275.4V219.4H274.016V231.3C270.916 224.4 263.216 218.6 252.416 218.6C237.416 218.6 226.316 229.5 226.316 246.6ZM274.016 246.7C274.016 260.3 264.916 268.7 253.716 268.7C242.216 268.7 233.416 260.4 233.416 246.6C233.416 232.7 242.216 224.7 253.716 224.7C264.916 224.7 274.016 233.1 274.016 246.7ZM337.896 274H344.796V242C344.796 226 334.996 218.4 322.596 218.4C314.496 218.4 307.496 221.9 303.996 228.7V219.4H296.996V274H303.996V244.2C303.996 230.9 311.096 224.5 321.296 224.5C331.296 224.5 337.896 230.7 337.896 242.8V274Z" fill="black"/>
</svg>
